<?xml version="1.0" encoding="UTF-8" standalone="no"?>
<!-- Created with Inkscape (http://www.inkscape.org/) -->

<svg
   xmlns:dc="http://purl.org/dc/elements/1.1/"
   xmlns:cc="http://creativecommons.org/ns#"
   xmlns:rdf="http://www.w3.org/1999/02/22-rdf-syntax-ns#"
   xmlns:svg="http://www.w3.org/2000/svg"
   xmlns="http://www.w3.org/2000/svg"
   xmlns:sodipodi="http://sodipodi.sourceforge.net/DTD/sodipodi-0.dtd"
   xmlns:inkscape="http://www.inkscape.org/namespaces/inkscape"
   width="16px"
   height="16px"
   viewBox="0 0 16 16"
   version="1.1"
   id="SVGRoot"
   inkscape:version="0.92.4 (fd57863, 2020-04-02)"
   sodipodi:docname="appicon.svg"
   inkscape:export-filename="/home/carsten/Projects/uml/src/ViraquchaUML/img/appicon_16x16.png"
   inkscape:export-xdpi="96"
   inkscape:export-ydpi="96">
  <defs
     id="defs815" />
  <sodipodi:namedview
     id="base"
     pagecolor="#ffffff"
     bordercolor="#666666"
     borderopacity="1.0"
     inkscape:pageopacity="0.0"
     inkscape:pageshadow="2"
     inkscape:zoom="16"
     inkscape:cx="-11.158861"
     inkscape:cy="8.625"
     inkscape:document-units="px"
     inkscape:current-layer="layer1"
     showgrid="false"
     inkscape:window-width="1920"
     inkscape:window-height="1015"
     inkscape:window-x="0"
     inkscape:window-y="0"
     inkscape:window-maximized="1"
     inkscape:grid-bbox="true"
     inkscape:snap-global="false" />
  <metadata
     id="metadata818">
    <rdf:RDF>
      <cc:Work
         rdf:about="">
        <dc:format>image/svg+xml</dc:format>
        <dc:type
           rdf:resource="http://purl.org/dc/dcmitype/StillImage" />
        <dc:title />
      </cc:Work>
    </rdf:RDF>
  </metadata>
  <g
     inkscape:label="Ebene 1"
     inkscape:groupmode="layer"
     id="layer1">
    <path
       style="fill:#ffffff;stroke:#000000;stroke-width:0;stroke-linecap:butt;stroke-linejoin:miter;stroke-opacity:1;stroke-miterlimit:4;stroke-dasharray:none;fill-opacity:1"
       d="M 3,3.25 6.75,14.125 H 9.4375 L 14.125,2.1875 10.0625,2.0625 Z"
       id="path822"
       inkscape:connector-curvature="0" />
    <path
       style="fill:#f4a460;fill-opacity:1;stroke:none;stroke-width:0.32367352;stroke-linecap:round;stroke-linejoin:round;stroke-miterlimit:4;stroke-dasharray:none;stroke-opacity:1"
       d="M 8.542437,0.0015021 C 5.007852,-0.04218326 1.3234777,0.86758972 0.34614625,2.6761446 -1.4935322,6.0804859 4.4179483,16.073084 8.2281503,15.999597 12.038353,15.926111 17.557717,5.7128875 15.587195,2.3820364 14.663511,0.82069898 11.661189,0.04004745 8.542437,0.0015021 Z m 3.207304,2.3300613 0.181271,0.00148 0.181731,0.00148 0.203045,0.1250174 0.0902,0.09904 c -4.95e-4,0.073971 0.02154,0.1484369 0.04372,0.222584 0.04468,0.098981 0.06681,0.1483689 0.06648,0.1976805 l -0.0021,0.3205466 -0.0015,0.2217245 -0.114329,0.1967493 -0.206477,0.3184256 c -0.04568,0.048956 -0.09142,0.1226112 -0.18226,0.1465483 -0.06835,0.048773 -0.136592,0.097517 -0.182429,0.1711259 -0.20591,0.2695911 -0.366351,0.5399931 -0.481685,0.8349627 -0.115334,0.2949691 -0.230457,0.5652279 -0.322955,0.8357216 l -0.184539,0.4174271 c -1.64e-4,0.024659 -4.24e-4,0.074021 -0.02358,0.1478048 -0.02316,0.073786 -0.06874,0.1472197 -0.09189,0.2210069 -0.02316,0.073786 -0.06918,0.147718 -0.09236,0.2215056 -0.04583,0.073612 -0.06901,0.1227869 -0.09186,0.1472635 l -0.207306,0.5160811 -0.09235,0.2210033 c -1.66e-4,0.024659 -0.02318,0.098343 -0.04651,0.1967855 -0.02316,0.073783 -0.06889,0.1721516 -0.09239,0.2952497 -0.046,0.098265 -0.06945,0.1968045 -0.1154499,0.2950673 -0.023165,0.073783 -0.046658,0.1475449 -0.046813,0.1722018 L 9.7533439,9.2939746 c -0.046001,0.098265 -0.091651,0.1961278 -0.1149836,0.29457 l -0.069761,0.2216849 c -6.499e-4,0.098624 -0.023596,0.147577 -0.02408,0.2215445 l -0.093677,0.41865 c -0.023,0.04912 -0.068816,0.171999 -0.1153178,0.34423 -0.06934,0.196707 -0.1390326,0.393104 -0.1856931,0.589991 -0.069494,0.221362 -0.1387416,0.418266 -0.1852376,0.590496 -0.046494,0.17223 -0.092772,0.295095 -0.1157795,0.344227 l -0.094036,0.541556 c -0.068671,0.09808 -0.137478,0.171757 -0.2059841,0.245187 -0.068343,0.04878 -0.114156,0.122279 -0.1599919,0.195885 -0.068508,0.07342 -0.1143863,0.146934 -0.1373886,0.196066 l -0.091066,0.09811 -0.2045355,0.09721 -0.1817315,-0.0015 -0.294736,-0.0025 c -0.045342,-3.59e-4 -0.0675,-0.02554 -0.1126743,-0.05056 -0.022672,-1.77e-4 -0.068024,-0.02513 -0.090705,-0.02529 -0.045178,-0.02503 -0.068024,-0.02512 -0.090705,-0.02528 -0.045342,-3.59e-4 -0.090489,-0.02564 -0.1581731,-0.0755 -0.045167,-0.02502 -0.090232,-0.07423 -0.1350793,-0.148561 l -0.088916,-0.22294 c 1.656e-4,-0.02465 4.02e-4,-0.04902 -0.021942,-0.09851 C 6.781481,12.99343 6.759209,12.94381 6.759384,12.91916 6.737042,12.869673 6.737216,12.795725 6.714874,12.746234 6.7150396,12.721568 6.7156318,12.647282 6.693766,12.523829 6.6947407,12.375894 6.672977,12.252716 6.673964,12.104783 6.652279,11.95672 6.653246,11.833645 6.631408,11.710189 6.60957,11.586731 6.610135,11.512514 6.610454,11.463202 L 6.6112663,11.3398 c -0.022178,-0.07415 -0.022003,-0.147864 -0.044016,-0.246667 4.955e-4,-0.07397 -0.021612,-0.14801 -0.021273,-0.197321 4.956e-4,-0.07397 -0.021766,-0.123507 -0.021602,-0.148163 -0.022168,-0.07411 -0.044191,-0.197948 -0.088381,-0.370896 C 6.4143809,10.204041 6.3705395,10.031175 6.326361,9.8582253 6.3048414,9.6854552 6.2604758,9.512508 6.2388018,9.3643951 6.1944465,9.2161018 6.1722586,9.1172762 6.1500809,9.043127 6.1502454,9.018468 6.1282836,8.9444295 6.0835889,8.845447 L 5.9500581,8.4746466 C 5.9055464,8.3510082 5.8609145,8.227498 5.8390679,8.104041 5.7945563,7.9804026 5.7725955,7.9059332 5.7727569,7.8812769 L 5.6846939,7.4616897 C 5.6396805,7.412017 5.6177805,7.3376243 5.595942,7.2141683 5.5512577,7.1151848 5.506635,6.991525 5.4846239,6.8927211 5.4401143,6.7690853 5.3953169,6.6700802 5.3733047,6.5712775 5.328466,6.4969468 5.3065557,6.4228325 5.2840593,6.3979969 5.2842238,6.3733379 5.2615629,6.3237144 5.2392207,6.2742325 5.1943821,6.1999029 5.1494818,6.1258313 5.1048025,6.0268505 L 4.9702209,5.8040482 C 4.9480535,5.729902 4.925845,5.6803626 4.9260095,5.6557068 4.9261751,5.6310478 4.9038112,5.6060935 4.8816336,5.5319452 4.8366201,5.4822725 4.8143294,5.4081544 4.7693232,5.3584824 4.7244846,5.2841517 4.702019,5.2347678 4.6571742,5.1604399 4.634832,5.1109507 4.6126338,5.0613354 4.6127983,5.0366797 L 4.4336865,4.7146971 4.4344978,4.5912938 c 0,0 2.601e-4,-0.049018 0.023268,-0.098142 0.023165,-0.073786 0.04596,-0.1233208 0.069124,-0.1971077 0.023164,-0.073786 0.046411,-0.1228905 0.069422,-0.1720225 0.023165,-0.073786 0.023421,-0.1231476 0.023596,-0.1478042 L 4.7346666,3.77997 4.8484965,3.6579645 c 0.022825,-0.024469 0.045856,-0.049229 0.091364,-0.073523 0.022825,-0.024469 0.045754,-0.02422 0.068425,-0.024037 l 0.2045344,-0.097207 0.294738,0.00236 0.2038722,0.00166 0.1355697,0.07532 c 0.045342,3.596e-4 0.090562,0.025221 0.1357384,0.050235 0.045167,0.025014 0.067869,0.050129 0.090366,0.074962 L 6.185287,3.7915299 c 0.022497,0.02483 0.045024,0.074457 0.090037,0.1241229 0.022168,0.074146 0.067201,0.1482976 0.089379,0.2224438 0.022168,0.074146 0.066502,0.1733004 0.1111876,0.272281 l -0.00278,0.41937 -9.747e-4,0.1474818 c 0.022168,0.074146 0.022003,0.1484396 0.044181,0.2225864 0.022168,0.074147 0.02154,0.1479357 0.043718,0.2220819 l -9.752e-4,0.1479835 c 0.022342,0.049489 0.044314,0.1234584 0.066317,0.2222617 0.044685,0.098981 0.066636,0.22289 0.1111506,0.3465266 0.021685,0.1481143 0.066152,0.2960534 0.1104967,0.4443468 0.044355,0.1482943 0.066152,0.2966311 0.1106581,0.4202682 0.044355,0.1482936 0.065916,0.271622 0.087929,0.3704233 0.044685,0.098984 0.067037,0.1730288 0.089544,0.1978639 -1.644e-4,0.024659 -8.112e-4,0.098947 0.043708,0.2225823 0.022013,0.098803 0.043882,0.2467904 0.088392,0.3704278 0.04451,0.1236374 0.066091,0.2469652 0.08793,0.3704231 0.044685,0.098982 0.04451,0.1728498 0.044345,0.1975057 0.022342,0.049486 0.044633,0.07446 0.066975,0.1239398 -3.301e-4,0.049312 0.022095,0.074275 0.021766,0.1235821 0.022496,0.02483 0.02227,0.04926 0.022105,0.073916 0.022168,0.074142 0.04453,0.1485434 0.089214,0.2475259 0.021838,0.123458 0.066646,0.2223882 0.1111567,0.3460266 0.021848,0.1234569 0.066245,0.2224602 0.088259,0.3212623 0.04451,0.1236387 0.066872,0.1975347 0.089214,0.2470247 l 0.09087,7.08e-4 0.090407,7.11e-4 0.1141251,-0.09742 C 8.2067869,10.046 8.2528389,9.9477145 8.3218421,9.8003189 8.3680071,9.6773992 8.4370849,9.5052015 8.5060876,9.3578052 8.5752526,9.1857561 8.6444241,8.9892018 8.7135914,8.8171506 8.7829314,8.6204446 8.8524625,8.44805 8.8989596,8.2758174 8.9681246,8.1037673 9.0145971,7.9319666 9.060762,7.8090471 9.107102,7.6614729 9.152753,7.5631839 9.1759184,7.4893968 c 1.645e-4,-0.024659 9.192e-4,-0.073933 0.024214,-0.1723805 0.023165,-0.073787 0.046289,-0.1724814 0.069453,-0.2462683 0.023329,-0.098443 0.046288,-0.1724056 0.069618,-0.2708493 0.023165,-0.073787 0.023884,-0.1226432 0.024049,-0.1472983 l 0.206022,-0.3189346 c 1.655e-4,-0.024659 0.022928,-0.049323 0.023268,-0.098643 0.023,-0.049127 0.046258,-0.098236 0.069422,-0.1720229 L 9.7307594,5.915554 c 0.023,-0.049127 0.045692,-0.073806 0.045856,-0.098464 l 0.094499,-0.5415506 c 0,0 0.045558,-0.073584 0.091559,-0.1718473 0.046001,-0.098262 0.092607,-0.2211265 0.1614416,-0.3438642 0.04616,-0.122919 0.114815,-0.2209508 0.160981,-0.3438697 0.046,-0.098264 0.06896,-0.1719507 0.06913,-0.1966064 1.64e-4,-0.024659 2.59e-4,-0.049443 0.02343,-0.1232249 4.97e-4,-0.073971 0.02359,-0.1475766 0.02408,-0.2215434 0.02316,-0.073786 0.02397,-0.1480771 0.04715,-0.2218641 4.96e-4,-0.07397 0.02341,-0.1231481 0.02359,-0.1478037 0.04584,-0.073612 0.09189,-0.1716189 0.137715,-0.2452273 0.04568,-0.048956 0.09155,-0.1224574 0.137393,-0.1960646 0.04583,-0.073611 0.09116,-0.1225369 0.11416,-0.1716686 l 0.114294,-0.122503 c 0.02267,1.793e-4 0.04577,-0.024647 0.0686,-0.049122 0.02283,-0.024469 0.06807,-0.048549 0.09089,-0.07302 0.02283,-0.024469 0.06845,-0.048962 0.114127,-0.097922 0.02267,1.799e-4 0.04508,4.366e-4 0.09057,-0.023859 0.06818,-0.024114 0.114117,-0.048187 0.159622,-0.072477 l 0.136105,-0.073167 c 0.0455,-0.024297 0.06846,-0.048614 0.113798,-0.048258 z"
       id="path970"
       inkscape:connector-curvature="0"
       inkscape:export-xdpi="96"
       inkscape:export-ydpi="96"
       inkscape:export-filename="/home/carsten/Projects/uml/src/ViraquchaUML/img/logo.png" />
  </g>
</svg>
