<?xml version="1.0" encoding="UTF-8" standalone="no"?>
<!-- Created with Inkscape (http://www.inkscape.org/) -->

<svg
   xmlns:dc="http://purl.org/dc/elements/1.1/"
   xmlns:cc="http://creativecommons.org/ns#"
   xmlns:rdf="http://www.w3.org/1999/02/22-rdf-syntax-ns#"
   xmlns:svg="http://www.w3.org/2000/svg"
   xmlns="http://www.w3.org/2000/svg"
   xmlns:sodipodi="http://sodipodi.sourceforge.net/DTD/sodipodi-0.dtd"
   xmlns:inkscape="http://www.inkscape.org/namespaces/inkscape"
   width="210mm"
   height="297mm"
   viewBox="0 0 210 297"
   version="1.1"
   id="svg8"
   inkscape:version="0.92.4 (fd57863, 2020-04-02)"
   sodipodi:docname="logo3.svg">
  <defs
     id="defs2">
    <style
       id="style838"
       type="text/css"><![CDATA[
    .fil0 {fill:#1F1A17}
   ]]></style>
    <style
       id="style891"
       type="text/css"><![CDATA[
    .fil0 {fill:#1F1A17}
   ]]></style>
    <style
       id="style930"
       type="text/css"><![CDATA[
    .fil0 {fill:#1F1A17}
   ]]></style>
  </defs>
  <sodipodi:namedview
     id="base"
     pagecolor="#ffffff"
     bordercolor="#666666"
     borderopacity="1.0"
     inkscape:pageopacity="0.0"
     inkscape:pageshadow="2"
     inkscape:zoom="1.979899"
     inkscape:cx="145.17097"
     inkscape:cy="953.47833"
     inkscape:document-units="mm"
     inkscape:current-layer="layer1"
     showgrid="false"
     showguides="true"
     inkscape:guide-bbox="true"
     inkscape:window-width="1350"
     inkscape:window-height="798"
     inkscape:window-x="150"
     inkscape:window-y="43"
     inkscape:window-maximized="0">
    <sodipodi:guide
       position="15.768902,259.91962"
       orientation="0,1"
       id="guide4677"
       inkscape:locked="false" />
    <sodipodi:guide
       position="10.022607,267.00227"
       orientation="1,0"
       id="guide4679"
       inkscape:locked="false" />
  </sodipodi:namedview>
  <metadata
     id="metadata5">
    <rdf:RDF>
      <cc:Work
         rdf:about="">
        <dc:format>image/svg+xml</dc:format>
        <dc:type
           rdf:resource="http://purl.org/dc/dcmitype/StillImage" />
        <dc:title />
      </cc:Work>
    </rdf:RDF>
  </metadata>
  <g
     inkscape:label="Ebene 1"
     inkscape:groupmode="layer"
     id="layer1">
    <g
       style="fill:#f4a460;fill-rule:evenodd;image-rendering:optimizeQuality;shape-rendering:geometricPrecision;text-rendering:geometricPrecision;fill-opacity:1"
       id="g958"
       transform="matrix(0.02539914,0,0,0.02539914,-44.815828,5.5092497)"
       inkscape:export-xdpi="96"
       inkscape:export-ydpi="96"
       inkscape:export-filename="/home/carsten/Projects/uml/src/ViraquchaUML/img/logo.png">
      <g
         id="Ebene 1-7"
         style="fill:#f4a460;fill-opacity:1">
        <g
           id="g942"
           style="fill:#f4a460;fill-opacity:1">
          <path
             id="path934"
             d="m 2857,1236 c 0,-1 0,-3 -1,-7 0,-3 0,-6 0,-10 0,-4 -1,-7 -1,-10 0,-4 0,-6 0,-7 0,-3 -1,-5 -1,-7 0,-1 -1,-3 -1,-5 0,-2 0,-3 0,-4 0,-1 0,-2 -1,-4 0,-1 0,-3 0,-4 -1,-2 -1,-4 -1,-5 l -2,-8 v -14 l -4,-7 c 0,-1 0,-2 0,-2 0,-1 -1,-2 -1,-2 0,-1 -1,-2 -1,-3 v -7 -6 c 0,-1 0,-1 1,-2 0,-1 1,-2 1,-3 1,-1 2,-2 2,-3 1,-1 1,-1 2,-2 1,0 1,-1 2,-2 1,0 1,-1 2,-1 1,-1 1,-1 2,-1 l 4,-2 c 0,0 1,0 2,0 0,0 1,0 2,-1 1,0 2,0 3,-1 1,0 1,1 3,1 1,0 2,1 3,2 1,0 2,1 3,1 1,1 2,2 3,2 l 4,4 c 0,0 0,1 0,2 1,1 1,1 2,2 0,1 0,1 1,2 0,1 0,1 0,2 v 2 2 c 0,0 0,1 0,2 -1,2 -1,3 -1,5 -1,1 -1,3 -2,4 0,1 0,2 0,3 0,0 0,1 0,2 -1,1 -1,2 -1,3 0,1 -1,3 -1,4 v 18 19 c 0,1 0,1 0,2 0,1 1,3 1,4 0,1 0,2 1,3 0,1 0,2 0,3 0,0 0,1 1,2 0,1 1,2 2,4 0,1 1,2 2,3 0,1 1,2 1,2 0,1 0,1 0,2 0,1 0,1 1,2 0,0 0,1 1,2 v 2 4 c 0,0 -1,1 -1,2 0,2 0,3 0,4 -1,2 -1,3 -1,5 -1,1 -1,2 -2,3 0,0 -1,1 -1,1 0,1 -1,2 -1,2 -1,1 -1,1 -2,2 -1,1 -1,1 -2,2 l -2,2 h -6 -8 l -3,-2 -2,-2 z m -9,-179 v -4 c 0,-1 0,-3 1,-5 0,-2 0,-4 0,-5 l 3,-5 2,-2 c 0,0 1,-1 3,-2 1,0 2,-1 4,-2 1,0 3,-1 5,-2 1,0 2,1 3,1 1,1 3,1 4,1 1,1 1,1 2,2 1,0 3,1 4,2 0,1 1,2 2,2 1,1 2,2 3,2 1,1 2,2 3,3 v 6 6 c -1,2 -2,3 -3,4 -1,1 -2,2 -3,2 -1,1 -2,2 -2,3 -1,1 -3,2 -4,3 -2,0 -3,1 -5,1 h -8 -8 l -5,-2 -1,-4 z m 71,186 v -16 c 0,0 0,-1 0,-3 0,-2 0,-4 0,-6 0,-1 0,-3 0,-5 0,-2 0,-3 0,-3 v -6 c 0,-1 0,-2 0,-3 0,-1 0,-2 -1,-4 v -4 c 0,-1 0,-2 0,-3 1,-1 1,-3 1,-5 1,-2 1,-4 2,-6 0,-2 0,-4 1,-6 0,-2 0,-3 1,-5 0,-1 0,-2 0,-2 v -12 -15 c 0,-1 0,-1 0,-3 -1,-1 -1,-2 -1,-4 0,-1 0,-3 0,-4 -1,-1 -1,-2 -1,-3 l -2,-5 v -2 c 1,-1 1,-2 2,-4 0,-1 1,-3 1,-4 l 2,-6 c 1,0 1,-1 2,-2 1,-1 1,-1 2,-2 1,-1 1,-2 2,-3 1,0 1,0 2,0 h 5 8 c 0,0 1,0 1,0 1,0 1,0 2,1 1,0 1,0 2,1 0,0 1,1 2,2 1,1 1,1 2,2 1,1 2,2 3,3 0,1 0,2 0,4 -1,1 -1,3 -1,5 0,2 -1,4 -1,6 0,2 0,3 0,4 l 6,-5 5,-4 c 1,0 1,0 2,-1 1,0 2,0 2,-1 1,0 2,-1 3,-2 1,0 2,-1 4,-2 2,0 4,-1 5,-1 2,-1 4,-2 5,-2 1,0 2,-1 3,-1 h 2 3 c 1,0 2,0 3,1 1,0 2,0 3,0 1,1 2,1 3,1 2,1 3,2 4,3 1,1 2,2 3,3 1,1 2,1 2,2 1,1 2,2 3,3 1,1 1,3 1,4 v 2 l -4,4 -3,2 h -13 l -2,1 c -1,1 -3,1 -3,1 -1,1 -3,1 -4,2 -2,1 -4,1 -6,2 -2,1 -4,1 -6,2 -2,1 -3,2 -4,2 l -2,2 c 0,0 0,1 -1,2 -1,1 -2,3 -3,4 -1,1 -2,3 -3,4 -1,1 -2,2 -2,3 l -4,6 c -1,1 -1,2 -2,3 0,1 -1,2 -1,3 -1,1 -1,2 -2,4 0,1 -1,2 -1,3 0,0 -1,1 -1,2 0,1 0,1 0,2 0,0 0,2 0,4 0,1 -1,4 -1,6 0,2 0,4 0,7 -1,2 -1,3 -1,4 v 4 2 c 0,1 1,3 1,4 0,1 1,2 1,4 0,1 0,1 0,2 0,0 0,1 0,2 0,1 1,2 1,2 0,2 1,3 1,4 l 3,7 v 4 4 l -1,4 c -1,0 -2,1 -3,2 -1,0 -2,1 -3,2 0,0 -1,1 -2,1 l -3,2 c -1,0 -1,0 -2,1 -1,0 -2,0 -3,0 -1,1 -2,1 -3,1 0,0 -1,0 -2,-1 0,0 -1,0 -1,0 -1,-1 -2,-1 -2,-1 -1,0 -1,0 -2,0 -1,0 -1,-1 -2,-1 -1,-1 -2,-2 -3,-2 z m 173,-10 h -2 l -4,5 -3,4 c -1,0 -1,1 -3,2 -1,0 -2,1 -4,2 -1,1 -2,2 -4,3 -1,1 -3,1 -3,2 -2,0 -3,0 -4,1 -1,1 -3,2 -3,2 h -3 l -5,-2 c 0,0 -1,0 -2,0 -2,-1 -3,-1 -4,-1 -2,-1 -3,-1 -4,-2 -1,0 -2,0 -2,0 l -4,-2 c -1,-1 -1,-2 -2,-3 -1,-1 -1,-1 -2,-2 -1,-1 -1,-2 -2,-2 0,-2 -1,-4 -2,-6 0,-1 -1,-3 -1,-5 0,0 0,-1 0,-2 0,-2 -1,-3 -1,-4 0,-1 0,-3 -1,-5 v -17 -15 c 0,0 0,-1 1,-3 0,-1 0,-3 0,-5 1,-2 1,-4 2,-6 0,-1 0,-3 1,-4 0,0 0,-1 1,-2 0,-1 1,-3 2,-4 0,-1 1,-3 1,-4 1,-1 1,-2 1,-2 0,0 0,-1 1,-2 0,-1 1,-2 1,-4 1,-1 1,-2 1,-3 1,-1 1,-1 1,-2 0,0 0,-1 0,-2 1,-1 1,-1 2,-2 0,-1 0,-2 1,-3 0,-1 0,-1 0,-2 1,-1 1,-2 2,-3 1,-1 1,-2 1,-2 1,-1 1,-2 1,-2 0,-1 1,-2 2,-4 1,-2 2,-3 3,-5 1,-2 3,-5 4,-7 1,-1 2,-2 3,-3 1,-1 2,-1 2,-2 1,-1 2,-2 2,-2 l 3,-2 h 4 4 c 1,0 2,1 3,1 1,0 1,0 2,1 1,0 2,0 2,0 1,0 1,0 2,0 0,0 1,1 1,1 1,0 2,0 2,1 1,0 2,0 3,1 1,1 2,2 3,3 1,1 2,2 3,3 1,1 2,2 2,2 2,0 4,1 6,1 1,0 3,1 5,2 0,0 1,0 2,0 0,1 1,1 1,1 1,0 2,1 3,1 0,0 1,0 2,1 1,1 2,2 3,3 l 2,3 v 5 6 l -2,5 c 0,1 -1,2 -1,4 0,2 0,4 0,6 0,2 0,4 -1,6 0,2 0,3 0,4 0,0 0,1 0,2 0,1 -1,2 -1,3 0,1 0,2 -1,3 0,1 0,2 0,2 v 10 10 c 0,1 0,2 0,3 1,1 1,3 1,4 0,2 1,3 1,5 0,1 0,2 0,3 0,0 0,1 1,2 0,1 0,2 1,3 0,1 1,2 1,3 0,1 1,2 1,2 0,1 0,1 0,2 0,1 1,1 1,2 1,0 1,1 2,2 1,0 2,1 2,2 1,0 1,1 2,1 1,0 1,0 1,0 l 4,2 h 4 5 c 1,0 2,0 2,-1 1,0 1,0 2,0 1,-1 1,-1 2,-1 1,0 2,-1 3,-1 1,-1 2,-1 3,-2 1,0 2,0 2,0 h 2 2 l 3,3 3,4 v 1 2 l -3,4 c 0,0 -1,1 -2,2 -1,1 -2,2 -4,2 -1,1 -2,2 -4,3 -1,1 -2,1 -2,2 0,0 -1,1 -2,1 -1,1 -2,2 -3,2 -1,1 -2,1 -4,1 -1,1 -1,1 -2,1 -2,0 -3,1 -5,1 -1,0 -2,0 -3,1 -1,0 -2,0 -3,0 h -3 c -2,0 -4,-1 -6,-1 -3,-1 -5,-3 -6,-4 -1,-1 -2,-1 -3,-2 -1,-1 -2,-2 -3,-3 -1,-1 -2,-2 -3,-2 -1,-1 -2,-2 -2,-2 l -4,-4 c 0,0 -1,-1 -2,-2 l -1,-3 z m -45,-29 v 6 l 1,2 c 0,0 0,1 1,1 0,1 0,1 0,2 l 2,3 5,6 h 2 4 l 3,-2 c 1,0 2,-1 4,-3 2,-2 4,-3 6,-5 2,-2 3,-4 5,-6 1,-2 2,-3 3,-4 0,0 0,-1 0,-2 1,-1 1,-2 2,-3 0,-1 0,-3 1,-3 0,-1 0,-2 0,-2 0,-1 0,-2 0,-2 1,-1 1,-2 1,-3 0,-1 1,-2 1,-3 v -16 -14 l -2,-6 c 0,0 0,-1 0,-1 -1,-1 -1,-2 -1,-3 l -2,-3 c -1,0 -1,-1 -2,-2 -1,0 -2,-1 -3,-2 0,-1 -1,-2 -2,-3 -1,0 -2,-1 -2,-2 h -2 c -1,1 -1,2 -2,2 0,1 -1,1 -2,2 0,1 -1,1 -2,2 0,0 -1,1 -1,2 -1,0 -1,1 -1,2 -1,0 -1,1 -1,1 l -1,4 c -1,0 -2,1 -2,2 -1,1 -1,3 -2,4 -1,1 -1,3 -2,4 0,1 0,2 0,2 l -2,5 -2,4 -1,2 c 0,1 0,1 0,2 0,1 0,1 0,1 0,1 -1,2 -1,2 0,1 0,2 0,3 -1,1 -1,2 -1,3 0,0 0,1 0,3 -1,1 -1,3 -1,5 0,2 -1,3 -1,5 0,1 0,2 0,3 z"
             class="fil0"
             inkscape:connector-curvature="0"
             style="fill:#f4a460;fill-opacity:1" />
          <path
             id="path936"
             d="m 3238,1210 -3,-1 -4,1 c 0,0 -1,1 -2,2 -1,0 -2,1 -4,3 -1,1 -2,2 -3,3 -1,1 -2,1 -2,2 -1,0 -2,2 -4,3 -1,2 -3,3 -5,5 -2,2 -4,3 -6,5 -1,1 -2,3 -3,3 l -4,2 c -1,1 -2,1 -3,2 -1,0 -2,1 -3,2 l -4,2 c 0,0 -1,1 -2,1 -1,1 -2,1 -3,1 -2,1 -3,1 -4,1 h -4 -4 c -1,0 -1,0 -3,0 -1,0 -2,0 -3,-1 -1,0 -3,0 -4,0 -1,0 -2,0 -2,0 l -4,-2 c -1,-1 -1,-2 -2,-2 -1,-1 -2,-2 -3,-3 -1,-1 -2,-2 -3,-3 -1,-1 -1,-2 -2,-2 v -2 l 2,-8 v -14 c 0,0 0,-1 1,-2 0,-1 1,-2 1,-3 1,-2 1,-3 1,-4 1,-1 1,-2 1,-2 0,-1 0,-2 1,-4 1,-2 1,-4 2,-6 1,-2 1,-4 2,-6 1,-2 1,-3 1,-4 l 2,-4 c 0,0 1,-1 2,-2 0,-1 1,-2 2,-4 1,-1 1,-2 2,-3 1,-1 1,-2 2,-2 0,-1 1,-1 2,-2 0,-1 1,-2 2,-3 0,-1 1,-2 2,-3 l 4,-4 c 0,-1 0,-1 0,-2 1,-1 2,-3 3,-4 0,-1 1,-2 2,-3 0,-1 1,-2 1,-3 0,0 0,-1 1,-2 1,-1 2,-2 3,-4 1,-1 2,-2 3,-3 1,-1 2,-2 2,-2 1,-1 2,-2 3,-3 1,-1 2,-2 3,-3 1,-2 3,-3 4,-4 1,-1 2,-2 2,-2 1,-1 2,-2 3,-3 2,-1 3,-2 5,-3 2,-1 3,-2 5,-3 1,-1 2,-2 3,-3 0,0 1,0 2,-1 1,0 1,0 2,0 1,-1 1,-1 2,-1 0,0 1,0 3,0 2,0 3,0 5,0 2,0 4,-1 6,-1 2,0 3,0 3,-1 h 8 8 c 0,0 1,0 2,1 1,0 2,1 3,1 1,1 2,1 3,2 0,0 1,0 2,0 l 2,2 c 0,1 1,2 1,2 1,1 1,2 1,2 0,1 0,1 0,2 1,1 1,2 2,3 0,1 1,2 1,3 0,1 1,1 1,2 v 2 4 c 0,0 -1,1 -1,3 -1,1 -2,3 -2,5 -1,2 -2,4 -2,6 -1,2 -1,5 -1,7 0,1 -1,2 -1,3 0,2 0,3 0,5 -1,2 -1,3 -1,5 0,1 0,2 0,3 0,0 -1,1 -1,3 0,2 -1,4 -1,6 -1,3 -1,5 -2,7 0,1 0,3 0,3 v 24 29 c 0,1 0,3 0,5 0,2 0,5 1,7 0,3 0,6 0,8 0,2 1,4 1,5 0,0 0,1 0,2 0,1 0,3 0,4 1,1 1,3 2,4 0,1 0,2 0,3 0,2 0,3 1,5 0,1 0,3 0,4 0,2 1,3 1,3 0,1 0,2 0,4 1,1 1,3 2,6 0,2 1,4 1,6 0,2 1,3 1,4 l 2,8 c 0,0 0,1 0,2 0,1 0,2 1,3 0,2 0,3 0,4 0,1 1,2 1,2 0,1 0,2 1,3 0,0 0,1 0,1 0,1 1,2 1,2 0,1 0,2 1,4 1,1 1,3 2,5 1,2 2,4 3,6 1,1 1,3 1,3 l 2,6 v 2 l -2,3 c 0,1 -1,2 -2,3 -1,1 -2,3 -2,4 -1,1 -2,3 -3,5 l -4,2 h -4 -4 c -1,0 -2,0 -2,-1 -1,0 -2,-1 -2,-2 -1,-1 -2,-2 -2,-3 -1,-1 -2,-1 -2,-2 0,-1 -1,-1 -1,-2 0,-1 -1,-1 -1,-2 0,-1 0,-1 0,-2 0,0 0,-1 0,-3 -1,-1 -1,-3 -1,-5 0,-2 -1,-4 -1,-6 0,-1 0,-2 0,-3 l -2,-8 c 0,0 0,-2 -1,-4 0,-3 0,-6 -1,-8 0,-3 -1,-6 -1,-9 -1,-2 -1,-4 -1,-4 0,0 0,-1 0,-2 -1,-2 -1,-3 -2,-4 0,-1 -1,-2 -1,-4 -1,-1 -1,-2 -1,-2 0,-1 0,-2 0,-3 0,-2 0,-4 -1,-6 0,-2 0,-3 0,-5 -1,-2 -1,-3 -1,-3 0,-1 0,-2 0,-3 0,-1 -1,-3 -1,-4 0,-2 0,-3 0,-4 -1,-2 -1,-2 -1,-3 0,0 0,-1 0,-2 0,-1 -1,-3 -1,-4 0,-1 0,-2 0,-3 -1,-2 -1,-2 -1,-3 0,-1 0,-3 -1,-4 0,-1 0,-2 0,-3 0,-1 0,-2 0,-2 0,-2 0,-4 -1,-8 0,-3 0,-6 0,-10 -1,-4 -1,-7 -1,-10 0,-4 0,-6 0,-8 z m -67,0 c 0,1 1,2 1,3 0,0 0,1 1,2 0,0 0,1 0,1 l 2,2 4,2 c 0,0 1,0 2,0 1,0 2,-1 3,-1 2,0 3,-1 4,-1 1,-1 2,-1 2,-2 1,0 2,-1 2,-2 1,0 2,-1 2,-1 1,-1 1,-1 2,-1 0,0 1,0 2,-1 1,-1 2,-2 3,-3 1,0 2,-1 3,-2 1,-1 2,-1 2,-1 l 8,-6 4,-4 c 0,-1 1,-1 2,-2 1,-2 2,-3 3,-4 1,-1 2,-2 3,-4 1,-1 2,-1 2,-2 0,0 1,-1 1,-2 1,-1 2,-2 2,-3 1,-1 1,-2 2,-3 0,0 0,-1 0,-2 1,-1 1,-3 1,-4 1,-1 1,-2 1,-4 0,-1 0,-2 0,-3 v -2 c 0,-1 0,-2 0,-3 0,-1 1,-3 1,-4 0,-2 0,-4 0,-6 l -2,-4 c 0,-1 -1,-1 -2,-2 0,0 -1,-1 -1,-1 -1,-1 -2,-2 -3,-2 -1,0 -1,0 -2,0 -1,0 -2,0 -3,0 0,0 -1,0 -1,0 h -4 c -1,1 -2,1 -3,2 0,0 -1,0 -1,1 -1,0 -1,1 -2,1 -1,1 -1,1 -2,2 -1,1 -2,1 -3,2 -1,0 -2,1 -3,2 l -4,4 c 0,1 -1,2 -3,3 -1,2 -2,3 -3,5 -2,2 -3,5 -4,7 -2,2 -3,4 -4,6 -2,2 -3,4 -4,5 0,2 -1,3 -1,3 -1,1 -2,2 -2,3 -1,1 -2,2 -2,3 -1,1 -1,2 -2,3 0,2 0,2 0,3 -1,1 -1,2 -1,3 -1,2 -1,4 -1,5 0,0 0,1 0,2 -1,1 -1,2 -1,3 0,1 -1,3 -1,4 z m 207,0 c 0,1 -1,1 -1,2 -1,1 -2,2 -3,3 -1,1 -2,2 -3,3 0,1 -1,1 -1,2 l -4,5 c 0,1 0,1 -1,2 0,1 -1,2 -2,3 -1,1 -2,2 -2,3 -1,0 -2,1 -2,2 l -2,2 c -1,1 -2,2 -4,3 -1,1 -3,2 -4,3 -2,2 -4,3 -6,4 l -7,2 -7,-1 -7,-1 c -1,0 -2,-1 -2,-1 -1,-1 -2,-2 -2,-2 0,-1 0,-1 -1,-2 0,-1 0,-1 -1,-2 -1,-1 -1,-1 -2,-2 0,-1 0,-2 -1,-2 0,-1 0,-2 0,-2 -1,-1 -1,-1 -1,-2 0,-1 0,-1 0,-2 0,-1 -1,-2 -1,-2 0,-1 -1,-2 -1,-3 0,-1 0,-2 0,-4 -1,-2 -1,-4 -1,-7 -1,-2 -1,-5 -1,-7 -1,-3 -1,-6 -2,-8 0,-2 0,-5 -1,-6 0,-2 0,-3 0,-4 0,-2 -1,-3 -1,-4 -1,-2 -1,-4 -1,-5 v -8 c 0,-1 0,-1 0,-2 0,-1 0,-2 -1,-3 0,0 0,-1 0,-2 0,-1 -1,-2 -1,-2 v -6 c 0,-1 0,-2 0,-4 -1,-1 -1,-3 -1,-3 0,-1 -1,-2 -1,-4 -1,-2 -2,-4 -2,-6 -1,-2 -2,-4 -3,-6 0,-2 0,-3 0,-3 v -2 -4 -3 c 1,-1 1,-1 2,-2 1,-1 2,-2 3,-3 1,-1 1,-2 2,-3 1,-1 2,-2 2,-2 1,-1 2,-2 4,-3 0,0 1,0 1,-1 h 4 4 c 1,1 2,2 3,3 1,1 2,2 2,3 1,0 2,1 2,2 1,1 2,2 3,4 2,1 2,2 2,3 1,1 1,1 2,2 0,1 1,2 1,3 0,1 1,2 1,3 l -2,7 c 0,1 0,2 0,3 0,1 -1,2 -1,3 0,1 0,2 -1,4 v 7 8 c 0,0 0,1 1,3 0,2 0,4 0,6 0,3 1,5 1,7 0,2 0,3 0,4 0,1 0,3 0,4 1,2 1,3 1,5 0,1 1,3 1,4 0,1 0,2 0,3 l 2,5 c 0,0 0,1 1,2 0,0 1,1 1,2 1,1 2,1 3,2 h 2 3 l 6,-2 c 0,-1 2,-2 3,-3 2,-2 3,-3 4,-4 l 4,-6 5,-7 c 1,-1 1,-2 2,-3 0,-2 1,-3 2,-5 0,-1 1,-3 1,-4 0,-2 0,-3 0,-3 0,-1 1,-2 1,-3 0,-2 0,-3 0,-5 0,-2 0,-3 0,-5 0,-1 0,-3 0,-3 0,-1 1,-3 1,-4 0,-1 0,-2 1,-3 0,-1 0,-2 0,-2 v -6 -4 l -2,-5 c 0,-1 0,-1 0,-2 0,-1 0,-2 -1,-3 0,-1 0,-2 0,-3 v -5 -4 c 0,-1 0,-3 0,-5 1,-1 1,-2 1,-3 0,0 0,-1 1,-2 1,0 1,-1 2,-2 1,-1 2,-2 3,-2 0,-1 1,-1 1,-1 1,0 2,0 3,-1 0,0 1,0 2,-1 1,0 2,-1 3,-1 1,-1 1,-1 2,-1 h 5 4 c 0,0 0,0 1,1 1,0 1,1 2,1 1,1 2,1 2,1 1,1 1,1 2,1 l 2,4 v 7 8 c 0,0 0,1 -1,2 0,1 -1,2 -1,3 0,1 -1,3 -1,4 -1,1 -1,1 -1,2 v 37 6 6 c 0,1 0,2 0,4 1,1 1,3 1,5 0,2 0,3 1,5 0,1 0,2 0,3 0,0 0,1 0,2 1,1 1,3 2,4 0,1 1,3 1,4 1,1 1,2 1,3 l 2,3 c 0,1 1,2 1,3 1,1 2,2 3,4 1,1 2,2 3,4 1,1 2,2 2,2 1,1 1,1 2,2 0,1 1,1 1,2 0,1 1,1 1,2 l 2,4 v 2 c 0,0 -1,1 -1,2 -1,1 -1,2 -2,3 -1,1 -1,2 -2,3 -1,1 -1,2 -1,3 l -4,3 -3,2 h -2 c 0,0 -1,0 -1,0 0,0 0,0 -1,0 0,1 0,1 0,1 -1,-1 -2,-1 -3,-1 -1,-1 -2,-1 -3,-1 -1,0 -1,0 -2,0 0,0 -1,0 -1,-1 -1,0 -2,0 -2,0 -1,-1 -1,-1 -2,-1 l -2,-2 c -1,-1 -1,-2 -2,-2 0,-1 -1,-1 -1,-2 0,0 0,-1 -1,-1 0,-1 -1,-1 -1,-2 -1,-1 -1,-1 -2,-2 0,0 0,-2 -1,-4 0,-2 -1,-4 -1,-7 -1,-3 -2,-5 -2,-7 -1,-2 -1,-3 -1,-4 0,-1 0,-1 0,-2 0,0 0,-1 -1,-2 0,-1 0,-1 0,-2 v -2 z m 55,10 v -9 l 2,-2 2,-10 2,-5 2,-9 c 0,-1 0,-2 0,-3 1,-2 1,-4 2,-6 0,-1 1,-3 2,-5 0,-1 1,-2 2,-3 0,-1 1,-3 2,-5 0,-1 1,-2 1,-4 1,-1 1,-2 2,-3 l 2,-4 4,-5 c 0,-1 1,-2 2,-4 1,-2 3,-3 4,-5 1,-2 3,-4 5,-6 l 11,-11 c 1,-1 1,-1 2,-3 1,-1 3,-2 4,-4 1,-1 3,-3 4,-4 1,-2 2,-3 3,-4 1,0 1,-1 2,-2 1,-2 2,-3 3,-4 1,-1 2,-2 3,-3 0,-1 1,-2 1,-2 h 6 9 l 5,2 3,4 v 5 8 c 0,0 0,1 -1,2 -1,1 -3,2 -4,3 -1,1 -3,2 -4,3 -1,1 -2,2 -2,3 -1,0 -2,0 -3,1 -1,0 -2,1 -3,1 -1,1 -2,2 -3,2 -1,1 -2,1 -3,1 0,0 -1,1 -3,3 -1,1 -3,3 -5,5 -1,1 -3,3 -5,5 -2,1 -3,3 -3,4 -1,0 -1,1 -3,3 -1,1 -2,3 -3,4 -1,2 -2,4 -3,5 -1,2 -2,3 -2,4 0,1 -1,1 -1,2 0,0 -1,1 -1,2 -1,0 -1,1 -2,1 0,1 0,2 0,2 -1,1 -1,3 -2,6 -1,2 -2,4 -3,7 0,2 -1,4 -2,6 0,2 0,3 0,3 v 7 10 l 1,4 c 0,0 0,0 1,1 1,1 1,1 2,2 1,1 1,1 2,2 1,1 1,1 1,2 0,0 0,1 1,1 0,1 1,2 2,2 0,1 1,2 2,2 l 4,2 h 9 10 c 1,0 2,0 3,-1 1,0 2,0 2,0 1,-1 2,-1 2,-1 1,0 1,0 2,0 1,0 1,0 2,-1 0,0 1,0 2,-1 l 8,-3 c 0,-1 2,-1 3,-2 2,-1 3,-1 4,-2 2,0 4,-1 6,-2 h 4 3 l 4,4 v 2 2 l -2,3 c 0,1 0,1 -1,2 -1,0 -1,1 -2,2 -1,0 -2,1 -2,1 -1,1 -2,2 -3,2 -1,1 -2,2 -3,3 -1,1 -3,2 -4,2 -1,1 -1,1 -2,1 -1,1 -3,1 -6,3 -2,1 -5,2 -8,3 -2,2 -5,3 -7,4 -3,1 -4,2 -5,3 -1,0 -1,0 -2,0 -1,0 -2,0 -3,1 -1,0 -2,0 -3,0 0,1 -1,1 -2,1 h -9 -7 c -2,-1 -3,-1 -5,-2 -1,0 -3,-1 -4,-1 -1,0 -2,-1 -3,-1 0,0 -1,-1 -2,-1 0,0 -1,-1 -2,-1 -1,-1 -2,-1 -3,-2 -1,-1 -2,-2 -3,-3 -1,-1 -2,-1 -3,-2 0,-1 -1,-1 -1,-2 -2,-1 -3,-2 -4,-4 -1,-1 -1,-2 -2,-4 l -2,-5 c -1,-2 -2,-3 -2,-4 -1,-1 -2,-1 -4,-1 z"
             class="fil0"
             inkscape:connector-curvature="0"
             style="fill:#f4a460;fill-opacity:1" />
          <path
             id="path938"
             d="m 3560,1232 c 0,0 1,-1 1,-2 0,-1 1,-2 1,-3 1,0 1,-1 2,-2 0,-1 0,-2 0,-2 v -16 c 0,0 0,-1 1,-3 0,-2 0,-4 0,-6 0,-2 1,-3 1,-5 0,-2 0,-3 0,-3 v -2 c 0,-1 0,-2 0,-4 0,-2 -1,-4 -1,-6 0,-2 0,-4 0,-6 -1,-2 -1,-3 -1,-3 0,-2 0,-5 0,-9 0,-4 -1,-8 -1,-12 0,-5 0,-9 0,-12 -1,-4 -1,-7 -1,-8 v -39 c 0,0 0,-1 0,-2 0,-1 0,-2 -1,-3 0,-2 0,-3 0,-4 0,-1 -1,-2 -1,-2 0,0 0,-1 0,-3 0,-1 0,-3 0,-5 0,-3 0,-5 -1,-7 0,-3 0,-5 0,-8 0,-2 0,-4 0,-5 0,-2 0,-3 0,-3 -1,-2 -1,-3 -1,-4 -1,-1 -1,-2 -1,-3 0,-1 0,-2 0,-3 l -2,-7 v -6 -6 c 0,-1 0,-1 1,-2 0,-1 0,-1 1,-1 0,-1 1,-1 2,-1 1,-1 2,-1 3,-2 0,0 1,-1 2,-1 1,-1 2,-1 2,-1 1,0 1,0 2,0 1,0 1,0 2,-1 1,0 1,0 2,-1 h 2 2 l 4,2 c 0,0 1,1 2,1 0,0 1,1 2,1 0,1 1,2 1,2 1,1 1,2 1,2 l 1,4 v 8 7 c 0,1 0,2 0,3 0,1 0,3 0,4 -1,2 -1,3 -1,4 0,2 0,2 0,3 v 33 31 c 0,1 0,3 0,6 0,2 0,5 1,7 0,3 0,6 0,10 l 3,2 c 0,-1 1,-2 2,-2 1,-1 1,-2 2,-3 1,-1 2,-2 3,-3 1,-1 2,-1 2,-2 0,0 1,-1 1,-2 1,-1 2,-3 3,-4 1,-1 2,-2 3,-3 1,-1 1,-2 1,-3 1,-1 2,-2 2,-3 1,0 2,-1 2,-1 1,-1 1,-1 2,-1 l 6,-4 c 0,0 1,0 2,0 0,-1 1,-1 1,-1 1,0 2,-1 3,-1 h 6 5 l 4,2 c 1,1 2,1 3,2 1,1 2,1 2,2 1,1 1,1 1,2 1,0 1,1 2,2 1,1 1,1 2,2 0,1 1,2 2,3 1,2 1,3 2,4 0,1 1,3 1,4 1,1 1,1 1,2 0,0 0,1 0,2 0,0 1,1 1,2 0,0 0,1 1,2 0,0 0,1 0,3 1,1 1,3 2,4 0,2 1,4 1,5 1,2 1,3 1,3 l 1,6 c 0,0 1,1 1,3 1,1 1,2 2,4 0,1 0,3 1,4 0,1 1,2 1,3 2,5 3,11 5,17 1,6 3,12 4,18 0,0 1,1 1,2 1,1 1,2 2,3 0,2 0,3 1,4 0,1 1,2 1,2 v 2 4 l -2,4 c -1,0 -2,1 -3,2 0,1 -1,2 -2,2 l -3,4 c -1,0 -2,0 -2,1 -1,0 -2,0 -2,0 -1,1 -2,1 -2,1 h -4 -4 l -4,-2 -2,-2 c 0,-1 0,-2 0,-3 -1,-1 -1,-2 -2,-3 0,-1 -1,-3 -1,-4 0,-1 0,-2 0,-2 v -12 c 0,0 -1,-1 -1,-2 0,-1 0,-2 0,-3 -1,-2 -1,-3 -1,-4 0,-1 0,-2 0,-2 0,0 -1,-2 -1,-3 0,-2 0,-4 -1,-6 0,-2 0,-4 0,-5 -1,-2 -1,-3 -1,-4 l -2,-6 -2,-7 c 0,-1 0,-2 -1,-3 0,-2 -1,-3 -2,-5 0,-2 -1,-3 -2,-5 0,-1 0,-2 0,-3 0,0 -1,-1 -1,-2 -1,-1 -1,-2 -2,-4 0,-1 -1,-2 -2,-3 0,-1 -1,-2 -2,-2 l -1,-2 h -2 -2 c -1,0 -2,0 -2,1 -1,0 -1,1 -2,1 0,1 0,1 0,2 -2,2 -4,5 -7,8 -2,3 -4,5 -6,8 -1,1 -2,2 -2,3 -1,1 -2,2 -2,3 -1,2 -1,3 -2,4 0,1 0,2 0,3 l -1,7 c 0,1 0,2 0,3 -1,1 -1,3 -2,4 0,2 -1,3 -1,4 0,1 -1,2 -1,3 v 50 c 0,1 0,1 -1,2 0,1 -1,1 -1,2 0,0 -1,1 -1,2 -1,0 -2,1 -3,1 0,1 -1,1 -2,2 -1,0 -2,1 -3,1 -1,1 -2,2 -2,2 l -4,2 h -2 c -1,-1 -3,-2 -5,-3 -2,-1 -4,-2 -5,-3 -1,-1 -1,-2 -2,-3 0,-1 -1,-2 -1,-3 -1,-1 -1,-2 -1,-2 0,-1 0,-1 0,-2 0,-1 -1,-3 -1,-4 0,-1 0,-2 -1,-4 z m 204,1 h -2 l -4,5 -3,4 c -1,0 -2,1 -3,2 -1,0 -2,1 -4,2 -1,1 -3,2 -4,3 -2,1 -3,1 -4,2 -1,0 -2,0 -3,1 -2,1 -3,2 -4,2 h -2 l -5,-2 c 0,0 -1,0 -3,0 -1,-1 -2,-1 -3,-1 -2,-1 -3,-1 -4,-2 -1,0 -2,0 -2,0 l -4,-2 c -1,-1 -2,-2 -2,-3 -1,-1 -1,-1 -2,-2 -1,-1 -1,-2 -2,-2 -1,-2 -1,-4 -2,-6 -1,-1 -1,-3 -1,-5 0,0 0,-1 0,-2 -1,-2 -1,-3 -1,-4 0,-1 -1,-3 -1,-5 v -17 -15 c 0,0 0,-1 0,-3 1,-1 1,-3 1,-5 0,-2 1,-4 1,-6 1,-1 1,-3 2,-4 0,0 0,-1 0,-2 1,-1 2,-3 2,-4 1,-1 2,-3 2,-4 1,-1 1,-2 1,-2 0,0 0,-1 0,-2 1,-1 1,-2 2,-4 0,-1 1,-2 1,-3 0,-1 1,-1 1,-2 0,0 0,-1 0,-2 0,-1 1,-1 1,-2 1,-1 1,-2 1,-3 1,-1 1,-1 1,-2 1,-1 1,-2 2,-3 0,-1 1,-2 1,-2 0,-1 1,-2 1,-2 0,-1 1,-2 2,-4 1,-2 2,-3 3,-5 1,-2 2,-5 4,-7 1,-1 2,-2 3,-3 1,-1 1,-1 2,-2 1,-1 1,-2 2,-2 l 3,-2 h 4 4 c 1,0 2,1 3,1 0,0 1,0 2,1 1,0 1,0 2,0 0,0 1,0 1,0 1,0 2,1 2,1 1,0 1,0 2,1 0,0 1,0 2,1 1,1 3,2 4,3 1,1 2,2 3,3 1,1 2,2 2,2 2,0 4,1 5,1 2,0 4,1 6,2 0,0 1,0 1,0 1,1 2,1 2,1 1,0 1,1 2,1 1,0 2,0 3,1 1,1 2,2 2,3 l 2,3 v 5 6 l -2,5 c 0,1 0,2 0,4 0,2 0,4 0,6 -1,2 -1,4 -1,6 0,2 0,3 0,4 0,0 0,1 0,2 -1,1 -1,2 -1,3 0,1 -1,2 -1,3 0,1 0,2 0,2 v 10 10 c 0,1 0,2 0,3 0,1 1,3 1,4 0,2 0,3 1,5 0,1 0,2 0,3 0,0 0,1 0,2 1,1 1,2 2,3 0,1 0,2 1,3 0,1 0,2 0,2 0,1 0,1 1,2 0,1 0,1 1,2 1,0 1,1 2,2 1,0 1,1 2,2 0,0 1,1 2,1 0,0 1,0 1,0 l 4,2 h 4 5 c 1,0 1,0 2,-1 1,0 1,0 2,0 0,-1 1,-1 1,-1 2,0 3,-1 4,-1 1,-1 2,-1 3,-2 1,0 2,0 2,0 h 2 2 l 3,3 2,4 v 1 2 l -2,4 c 0,0 -1,1 -2,2 -1,1 -3,2 -4,2 -1,1 -3,2 -4,3 -1,1 -2,1 -2,2 -1,0 -1,1 -2,1 -1,1 -2,2 -3,2 -2,1 -3,1 -4,1 -1,1 -2,1 -2,1 -2,0 -3,1 -5,1 -1,0 -2,0 -3,1 -2,0 -2,0 -3,0 h -3 c -2,0 -4,-1 -7,-1 -2,-1 -4,-3 -6,-4 0,-1 -1,-1 -2,-2 -1,-1 -2,-2 -3,-3 -1,-1 -2,-2 -3,-2 -2,-1 -2,-2 -3,-2 l -3,-4 c -1,0 -1,-1 -2,-2 l -2,-3 z m -45,-29 v 6 l 1,2 c 0,0 0,1 0,1 1,1 1,1 1,2 l 1,3 6,6 h 2 3 l 4,-2 c 1,0 2,-1 4,-3 2,-2 4,-3 5,-5 2,-2 4,-4 6,-6 1,-2 2,-3 3,-4 0,0 0,-1 0,-2 0,-1 1,-2 1,-3 1,-1 1,-3 1,-3 1,-1 1,-2 1,-2 0,-1 0,-2 0,-2 0,-1 1,-2 1,-3 0,-1 1,-2 1,-3 v -16 -14 l -2,-6 c 0,0 0,-1 -1,-1 0,-1 0,-2 -1,-3 l -1,-3 c -1,0 -1,-1 -2,-2 -1,0 -2,-1 -3,-2 -1,-1 -2,-2 -2,-3 -1,0 -2,-1 -2,-2 h -2 c -1,1 -2,2 -2,2 -1,1 -1,1 -2,2 -1,1 -1,1 -2,2 0,0 -1,1 -1,2 -1,0 -1,1 -2,2 0,0 0,1 0,1 l -2,4 c 0,0 -1,1 -1,2 -1,1 -2,3 -2,4 -1,1 -1,3 -2,4 0,1 0,2 0,2 l -2,5 -2,4 -1,2 c 0,1 0,1 0,2 -1,1 -1,1 -1,1 0,1 0,2 0,2 0,1 0,2 -1,3 0,1 0,2 0,3 0,0 0,1 -1,3 0,1 0,3 0,5 -1,2 -1,3 -1,5 0,1 0,2 0,3 z m 114,11 c 0,-1 0,-2 0,-3 0,-1 0,-2 -1,-3 0,-1 0,-3 0,-4 0,-1 0,-1 0,-2 l -3,-10 c 0,-1 0,-3 0,-6 0,-2 0,-4 0,-7 0,-2 0,-4 0,-6 0,-2 0,-3 0,-4 v -6 -6 c 0,0 0,-2 0,-4 0,-3 0,-5 0,-9 0,-3 1,-6 1,-10 0,-4 0,-7 0,-10 1,-4 1,-6 1,-9 0,-2 0,-4 0,-4 v -16 -15 l -2,-4 v -4 -2 c 0,0 0,-1 0,-2 1,-1 1,-3 2,-4 0,-1 1,-2 2,-3 0,-1 1,-2 2,-3 0,0 0,-1 1,-1 0,-1 1,-2 1,-2 1,-1 2,-2 3,-3 2,0 3,0 4,-1 2,0 3,0 4,0 1,0 2,0 2,0 h 4 2 c 1,0 1,0 2,0 1,0 2,0 3,0 1,1 2,1 3,1 l 2,2 c 0,1 0,2 0,2 1,1 1,2 2,3 0,1 1,2 2,3 v 2 4 c -1,1 -1,2 -1,2 -1,1 -1,1 -1,2 0,1 0,1 0,2 0,0 -1,2 -2,4 -1,3 -2,6 -3,8 -1,3 -3,6 -4,9 -1,2 -1,4 -1,4 0,1 0,1 0,2 -1,1 -1,2 -1,3 0,1 0,2 -1,3 0,0 0,1 0,2 0,0 0,1 0,4 0,2 -1,4 -1,7 0,3 0,5 -1,8 0,3 0,5 0,6 v 2 c 0,2 0,5 0,9 1,4 1,8 1,11 0,4 0,9 1,13 0,1 0,2 0,4 0,2 0,5 0,7 0,2 0,4 1,6 0,2 0,4 0,5 0,0 0,1 0,2 0,1 0,3 1,4 0,2 0,3 0,5 1,1 1,3 2,4 0,0 0,1 1,3 0,1 1,3 2,5 1,2 2,3 2,5 1,2 2,3 2,3 l 2,2 4,2 4,-2 c 1,0 1,0 2,0 1,-1 1,-1 2,-2 0,0 1,-1 2,-2 0,0 1,-1 3,-1 2,-1 3,-2 5,-2 1,-1 3,-2 4,-3 1,0 2,-1 2,-1 0,-1 1,-2 2,-4 1,-1 3,-3 4,-5 1,-2 2,-4 3,-6 1,-2 2,-3 2,-4 3,-3 6,-6 8,-10 2,-4 4,-7 5,-11 1,-4 2,-7 3,-11 0,-3 1,-5 1,-6 v -13 -13 c 0,-1 -1,-2 -1,-3 0,-2 0,-4 0,-6 -1,-2 -1,-3 -1,-5 0,-2 0,-3 0,-3 0,-1 0,-2 -1,-5 0,-2 0,-4 0,-7 -1,-3 -1,-5 -1,-7 0,-3 0,-4 0,-5 0,0 -1,-1 -1,-3 -1,-2 -1,-4 -2,-6 0,-3 -1,-5 -1,-6 -1,-2 -1,-3 -1,-4 v -8 -8 c 0,0 0,-1 0,-1 0,-1 0,-1 0,-2 0,0 -1,0 -1,0 -1,0 -1,-1 0,-1 0,-1 1,-2 2,-2 1,-1 2,-2 2,-3 1,-1 2,-2 2,-2 0,-2 1,-4 2,-5 1,-1 2,-2 5,-3 h 4 6 c 0,0 1,0 2,1 1,0 3,0 4,1 1,0 2,1 3,1 1,0 2,1 3,1 l 4,4 c 0,0 0,1 0,2 0,1 0,2 0,4 0,1 0,2 1,3 0,1 0,2 0,2 v 6 8 c 0,1 0,1 -1,2 0,2 0,3 -1,4 0,1 0,2 0,3 -1,2 -1,2 -1,3 l -1,6 c 0,0 0,1 0,2 0,0 0,1 -1,2 0,1 0,2 0,3 0,1 0,1 0,2 0,1 0,3 -1,5 0,2 0,4 0,6 0,2 0,4 -1,5 0,2 0,3 0,4 0,1 0,2 0,5 1,2 1,5 1,7 0,3 0,5 0,8 1,2 1,4 1,5 0,0 0,1 0,3 0,2 0,4 1,6 0,3 0,5 1,8 0,3 0,6 1,9 0,3 0,6 1,8 0,3 0,5 1,7 l 1,3 c 0,1 0,2 0,2 1,1 1,2 1,2 0,1 0,2 0,2 0,1 0,2 1,2 0,1 0,2 1,2 l 1,4 4,8 c 0,0 1,1 1,2 0,1 0,1 0,2 1,1 1,1 1,2 0,0 0,1 0,2 0,1 0,2 1,3 0,2 1,3 1,4 v 6 c 0,1 0,1 0,2 1,1 1,1 1,2 0,0 1,1 1,2 l -2,4 c -1,2 -1,3 -2,4 0,1 -1,2 -1,3 -1,1 -1,2 -2,2 l -2,3 -4,1 h -6 -5 l -4,-1 c -1,-1 -1,-2 -2,-3 -1,-1 -1,-3 -2,-5 -1,-3 -1,-7 -2,-12 0,-4 -1,-11 -1,-19 0,-1 -1,-1 -1,-1 -1,-1 -1,-1 -1,-2 -1,0 -1,-1 -1,-1 l -2,-2 -2,2 c -1,2 -3,4 -5,6 -2,2 -4,5 -6,7 -1,3 -3,5 -5,7 -2,3 -4,5 -5,7 l -4,4 c -1,1 -3,2 -5,4 -3,2 -6,4 -8,5 -3,2 -6,4 -8,5 -2,2 -4,3 -4,3 l -1,2 h -10 -10 l -6,-3 -4,-4 z"
             class="fil0"
             inkscape:connector-curvature="0"
             style="fill:#f4a460;fill-opacity:1" />
          <path
             id="path940"
             d="m 4128,1113 c -2,4 -4,7 -5,9 -1,2 -2,3 -3,5 0,2 -1,3 -2,4 0,1 0,2 -1,3 0,1 -1,2 -2,4 0,1 -1,3 -2,4 0,1 -1,2 -1,3 0,0 0,1 0,4 -1,2 -2,4 -3,6 -1,3 -1,5 -2,7 -1,2 -2,3 -2,4 0,0 -1,1 -1,2 -1,1 -2,2 -3,3 -1,1 -2,2 -3,3 0,1 -1,1 -1,2 l -6,9 c 0,0 -1,1 -2,2 -1,0 -1,1 -2,1 0,0 -1,0 -2,0 0,0 -1,0 -1,1 -1,0 -2,0 -2,0 -1,1 -2,1 -2,1 l -4,-1 c 0,0 -1,0 -2,0 -1,-1 -2,-1 -2,-1 l -2,-2 c 0,0 0,-1 -1,-2 -1,0 -1,-1 -2,-3 -1,-1 -1,-2 -2,-3 -1,-1 -1,-2 -1,-2 l -4,-6 -2,-4 -5,-8 -2,-6 c 0,0 -1,-1 -1,-2 -1,-1 -2,-3 -3,-4 0,-2 -1,-3 -2,-4 -1,-2 -2,-2 -2,-3 l -4,-6 -6,-10 -4,-5 -2,2 c 0,1 -1,3 -1,5 0,2 -1,3 -1,4 v 18 17 c 0,0 0,1 1,2 0,1 0,3 0,4 1,1 1,2 1,3 0,1 0,2 0,3 0,0 1,1 2,3 0,1 1,3 2,4 1,2 2,4 3,5 1,2 1,3 1,3 0,0 0,1 0,3 0,1 0,3 1,5 0,2 0,4 0,6 0,3 0,5 1,7 0,2 0,4 0,5 0,2 0,3 0,3 l 2,6 v 2 2 l -2,3 c 0,1 0,1 -1,2 0,1 -1,2 -2,3 -1,1 -2,2 -3,3 0,0 -1,1 -2,2 0,1 -1,2 -2,3 0,1 -1,1 -2,2 -1,1 -1,1 -2,1 l -3,2 h -4 -4 l -4,-4 c 0,-1 -1,-2 -1,-2 0,-1 -1,-2 -1,-2 0,-1 0,-2 0,-2 0,-1 0,-1 0,-2 -1,-1 -1,-2 -1,-3 0,-1 -1,-3 -1,-4 v -20 c 0,0 0,-1 0,-3 0,-2 -1,-4 -1,-7 0,-2 0,-4 0,-6 -1,-2 -1,-4 -1,-5 0,0 0,-1 0,-3 0,-1 0,-3 -1,-5 0,-1 0,-3 0,-4 0,-2 -1,-3 -1,-3 v -66 l -2,-4 -7,-8 -2,-3 v -10 -10 c 0,0 0,-1 1,-2 0,0 0,-1 0,-2 1,0 1,-1 1,-2 l 2,-1 5,-4 c 1,-1 2,-1 2,-2 1,0 2,-1 3,-1 1,0 2,-1 3,-1 h 8 9 l 4,2 c 1,0 2,1 3,2 1,1 2,2 3,3 1,1 2,3 3,3 1,1 1,2 2,2 l 4,8 4,6 3,4 c 0,1 0,2 1,3 0,1 1,2 1,3 1,1 1,2 2,3 0,1 0,2 0,3 1,2 2,3 3,5 1,1 2,2 3,4 1,1 1,2 2,2 1,1 2,3 4,6 1,2 3,5 4,7 2,2 3,4 4,6 2,2 3,4 3,4 l 4,4 2,-1 3,-3 c 1,0 2,-1 2,-2 1,-1 2,-2 3,-3 1,-2 2,-4 3,-6 0,0 0,-1 1,-2 1,-1 1,-2 2,-3 1,-2 1,-3 2,-4 1,-1 1,-2 1,-2 l 4,-6 2,-4 c 1,-3 2,-5 3,-8 1,-2 2,-4 3,-7 0,-1 0,-2 0,-4 1,-1 1,-2 2,-4 0,-1 0,-2 1,-3 0,-1 0,-2 0,-3 l 2,-9 2,-4 c 0,-1 1,-1 1,-2 1,-1 2,-1 2,-2 1,-1 1,-2 2,-2 1,-1 1,-2 1,-2 0,-1 0,-1 1,-2 0,0 1,-1 2,-2 1,0 2,-1 3,-2 l 4,-2 h 4 5 c 1,0 2,0 2,1 1,0 2,0 3,0 1,1 2,1 3,1 l 3,3 5,5 2,4 v 6 3 c 0,1 0,2 -1,2 0,1 0,2 -1,3 0,1 -1,2 -1,3 -1,1 -1,2 -1,2 0,3 -1,5 -1,7 0,3 0,5 -1,7 0,2 0,4 0,5 v 2 c 0,2 0,4 0,6 1,3 1,6 1,8 0,3 0,5 1,7 0,2 0,4 0,4 0,1 0,2 0,3 1,1 1,2 1,3 0,1 1,2 1,4 0,1 0,2 1,4 0,2 0,5 1,8 0,2 1,5 1,7 1,2 1,4 1,4 l 2,8 c 0,0 0,1 0,3 0,1 0,2 1,4 0,1 0,2 0,4 1,1 1,2 1,2 0,1 0,2 0,3 0,1 1,2 1,3 0,1 0,2 1,4 0,2 1,4 2,7 1,3 2,6 3,10 2,3 3,6 4,9 1,3 2,6 2,7 1,0 1,0 2,1 1,1 1,1 2,2 0,1 1,2 1,3 1,0 1,1 1,2 v 2 3 l -1,3 c 0,0 0,1 -1,1 0,1 0,1 0,2 -1,1 -2,2 -2,3 0,1 -1,2 -2,3 0,1 -1,1 -2,2 0,0 -1,1 -2,1 0,1 -1,1 -2,1 l -3,2 h -4 -4 c -1,-1 -2,-1 -2,-1 -1,-1 -2,-1 -2,-2 -1,0 -1,-1 -2,-1 l -2,-2 c 0,0 0,-1 -1,-2 0,0 0,-1 -1,-2 0,-1 -1,-1 -1,-2 -1,-1 -1,-1 -1,-2 0,0 0,-1 0,-1 0,-1 0,-2 -1,-2 0,-1 0,-2 -1,-3 0,0 0,-1 0,-2 0,-1 0,-3 -1,-4 0,-2 0,-3 0,-4 0,-2 -1,-3 -1,-3 0,-1 0,-2 -1,-5 0,-2 -1,-5 -1,-8 -1,-3 -2,-5 -2,-8 -1,-2 -1,-4 -1,-4 -1,-7 -2,-14 -3,-20 -1,-7 -2,-14 -3,-21 l -2,-9 c 0,-1 0,-2 -1,-3 0,-1 0,-2 0,-3 0,-1 -1,-3 -1,-4 0,-1 0,-1 0,-2 0,0 0,-1 0,-3 -1,-2 -1,-4 -1,-6 0,-2 -1,-3 -1,-5 0,-2 0,-3 0,-3 z m 77,107 v -8 l 2,-6 v -23 c 0,0 0,-2 0,-4 1,-1 1,-3 2,-6 0,-2 1,-4 1,-6 0,-2 1,-3 1,-3 v -12 c 0,-1 0,-2 0,-3 0,-2 0,-3 1,-5 0,-2 0,-3 0,-5 0,-1 0,-2 0,-2 v -18 -17 c 0,-1 0,-2 0,-3 0,-1 0,-2 0,-3 -1,-1 -1,-3 -1,-4 0,-1 0,-1 0,-2 0,0 -1,-1 -1,-2 0,-1 -1,-3 -1,-4 -1,-1 -1,-2 -2,-3 0,-1 0,-2 0,-3 0,0 0,-1 -1,-2 0,0 0,-1 0,-2 l -1,-3 v -6 -4 l 2,-2 5,-4 4,-2 c 1,0 1,0 2,0 1,0 2,0 3,-1 1,0 2,0 3,0 1,-1 1,-1 2,-1 h 4 c 4,0 6,2 8,4 1,3 3,6 4,10 0,0 0,1 0,2 0,1 0,2 1,3 0,2 0,3 1,5 0,0 0,1 -1,3 0,1 0,3 0,4 -1,2 -1,4 -1,5 0,2 0,3 0,3 0,1 0,2 -1,4 0,2 0,4 0,6 -1,2 -1,4 -1,6 0,2 0,3 0,3 v 6 c 0,1 0,3 -1,6 0,3 0,7 0,10 -1,4 -1,9 -1,13 0,5 -1,9 -1,13 0,4 -1,7 -1,10 0,3 0,5 0,6 v 4 4 c 0,1 1,2 1,3 0,1 0,2 0,3 1,1 1,1 1,2 l 2,6 v 5 l 2,4 c 0,1 0,1 0,2 1,0 1,1 2,1 0,0 1,1 2,1 h 5 6 c 1,0 2,0 2,-1 1,0 2,0 3,-1 1,0 2,-1 3,-1 1,-1 1,-1 2,-1 1,0 2,0 4,-1 2,0 3,-1 4,-1 0,0 1,0 3,0 1,0 2,0 4,-1 1,0 3,0 4,0 1,-1 2,-1 3,-1 h 13 12 c 0,0 1,0 2,1 0,0 1,1 2,2 0,0 1,1 1,2 1,0 1,1 1,1 0,1 0,2 1,2 0,1 0,2 0,2 1,1 1,1 1,2 v 4 2 c -1,0 -1,1 -2,2 0,0 0,1 -1,1 0,0 -1,1 -1,1 -2,1 -4,2 -7,2 -3,1 -5,2 -7,2 l -8,2 c 0,0 -1,0 -3,0 -2,1 -4,1 -5,1 -2,1 -4,1 -6,2 -2,0 -3,0 -3,0 -1,0 -2,1 -2,1 -1,0 -2,1 -3,1 -1,1 -2,1 -3,2 -1,0 -1,0 -2,0 l -10,2 c 0,1 -1,1 -2,1 -1,1 -3,1 -4,1 l -3,2 -10,4 -4,4 -4,2 c -1,0 -1,0 -2,0 -1,0 -3,0 -4,1 -1,0 -2,0 -3,0 -1,1 -2,1 -3,1 l -4,-2 -2,-2 -2,-4 -5,-8 c -1,-1 -1,-2 -1,-3 -1,-1 -1,-2 -1,-3 0,0 0,-1 0,-2 z"
             class="fil0"
             inkscape:connector-curvature="0"
             style="fill:#f4a460;fill-opacity:1" />
        </g>
      </g>
    </g>
    <path
       style="fill:#f4a460;fill-opacity:1;stroke:none;stroke-width:0.34771675;stroke-linecap:round;stroke-linejoin:round;stroke-miterlimit:4;stroke-dasharray:none;stroke-opacity:1"
       d="m 20.188572,23.230088 c -3.959901,-0.045 -8.087616,0.89218 -9.18255,2.755222 -2.0610462,3.506904 4.561762,13.80055 8.830446,13.724849 4.268683,-0.0757 10.452193,-10.596618 8.244558,-14.027818 -1.03483,-1.608376 -4.398423,-2.412547 -7.892454,-2.452253 z m 3.59324,2.400259 0.203082,0.0015 0.2036,0.0015 0.227477,0.128784 0.101063,0.102024 c -5.55e-4,0.0762 0.02413,0.152909 0.04897,0.22929 0.05006,0.101964 0.07485,0.152839 0.07448,0.203636 l -0.0024,0.330204 -0.0017,0.228404 -0.128086,0.202677 -0.231324,0.328019 c -0.05117,0.05043 -0.102414,0.126305 -0.204191,0.150963 -0.07657,0.05024 -0.153027,0.100456 -0.204379,0.176282 -0.230622,0.277717 -0.410368,0.556265 -0.539583,0.860122 -0.129212,0.303855 -0.258185,0.582256 -0.361815,0.860899 l -0.206743,0.430003 c -1.85e-4,0.0254 -4.77e-4,0.07625 -0.02643,0.152258 -0.02595,0.07601 -0.077,0.151655 -0.102947,0.227665 -0.02595,0.07601 -0.07751,0.152168 -0.103469,0.228179 -0.05135,0.07583 -0.07732,0.126486 -0.102911,0.1517 l -0.232289,0.531623 -0.103462,0.227662 c -1.85e-4,0.0254 -0.02598,0.101305 -0.05212,0.202714 -0.02595,0.07601 -0.07718,0.177338 -0.103503,0.304144 -0.05154,0.101225 -0.07781,0.202734 -0.129343,0.303957 -0.02595,0.07601 -0.05227,0.151991 -0.05245,0.17739 l -0.206231,0.430523 c -0.05154,0.101225 -0.102683,0.202036 -0.12882,0.303444 l -0.07815,0.228364 c -7.4e-4,0.101594 -0.02643,0.152023 -0.02698,0.228219 l -0.104947,0.431262 c -0.02577,0.05061 -0.0771,0.177183 -0.129194,0.354602 -0.07768,0.202632 -0.155762,0.404948 -0.208038,0.607765 -0.07786,0.228031 -0.155436,0.430867 -0.207527,0.608286 -0.05209,0.177419 -0.103942,0.303986 -0.129711,0.354599 l -0.105353,0.55787 c -0.07694,0.101038 -0.154021,0.176932 -0.230771,0.252573 -0.07657,0.05024 -0.127892,0.125963 -0.179243,0.201787 -0.07675,0.07564 -0.128151,0.151361 -0.153921,0.201972 l -0.102024,0.101063 -0.229147,0.100135 -0.2036,-0.0015 -0.330202,-0.0024 c -0.0508,-3.7e-4 -0.07562,-0.02631 -0.126232,-0.05208 -0.0254,-1.85e-4 -0.07621,-0.02588 -0.101614,-0.02606 -0.05061,-0.02577 -0.07621,-0.02588 -0.101617,-0.02606 -0.0508,-3.69e-4 -0.101378,-0.02642 -0.177206,-0.07777 -0.05061,-0.02577 -0.10109,-0.07647 -0.151334,-0.153036 l -0.09961,-0.229658 c 1.85e-4,-0.0254 4.44e-4,-0.05049 -0.02458,-0.101468 3.7e-4,-0.0508 -0.02458,-0.101906 -0.02439,-0.127305 -0.02503,-0.05098 -0.02483,-0.127153 -0.04986,-0.178135 1.85e-4,-0.0254 8.2e-4,-0.101928 -0.02365,-0.229105 0.0011,-0.152391 -0.02329,-0.27928 -0.02218,-0.431671 -0.02429,-0.152576 -0.02321,-0.279358 -0.04768,-0.406535 -0.02447,-0.127177 -0.02384,-0.203629 -0.02347,-0.254426 l 9.27e-4,-0.127121 c -0.02485,-0.07638 -0.02465,-0.152318 -0.04931,-0.254097 5.55e-4,-0.0762 -0.02421,-0.15247 -0.02384,-0.203267 5.55e-4,-0.0762 -0.02439,-0.127228 -0.02421,-0.152626 -0.02484,-0.07638 -0.04951,-0.203945 -0.09902,-0.382104 -0.0241,-0.177974 -0.07322,-0.35605 -0.122719,-0.534209 -0.0241,-0.177975 -0.07381,-0.356132 -0.0981,-0.508708 -0.04969,-0.152761 -0.07455,-0.254564 -0.0994,-0.330946 1.85e-4,-0.0254 -0.02442,-0.101671 -0.07449,-0.203636 l -0.149633,-0.381988 c -0.04987,-0.127363 -0.09987,-0.254595 -0.124346,-0.381771 -0.04987,-0.127363 -0.07447,-0.204076 -0.07429,-0.229475 l -0.09866,-0.432228 c -0.05043,-0.05117 -0.07496,-0.127803 -0.09943,-0.254979 -0.05006,-0.101965 -0.100057,-0.229351 -0.124713,-0.331131 -0.04987,-0.127361 -0.100059,-0.229349 -0.124715,-0.331128 -0.05024,-0.07657 -0.07478,-0.152917 -0.09999,-0.178501 1.85e-4,-0.0254 -0.0252,-0.07652 -0.05023,-0.127493 -0.05024,-0.07657 -0.100534,-0.152872 -0.150593,-0.254835 l -0.150776,-0.229515 c -0.02484,-0.07638 -0.04971,-0.127412 -0.04953,-0.15281 1.85e-4,-0.0254 -0.02487,-0.05111 -0.04971,-0.12749 -0.05043,-0.05117 -0.0754,-0.127521 -0.125825,-0.178689 -0.05024,-0.07657 -0.0754,-0.127442 -0.125643,-0.204009 -0.02503,-0.05098 -0.0499,-0.102091 -0.04971,-0.127489 l -0.200675,-0.331683 9.26e-4,-0.127121 c 0,0 2.89e-4,-0.05049 0.02606,-0.101099 0.02595,-0.07601 0.05149,-0.127036 0.07744,-0.203046 0.02595,-0.07601 0.052,-0.126593 0.07777,-0.177205 0.02595,-0.07601 0.02624,-0.126858 0.02643,-0.152257 l 0.128584,-0.20216 0.127527,-0.125681 c 0.02558,-0.02521 0.05137,-0.05071 0.102355,-0.07574 0.02558,-0.02521 0.05126,-0.02495 0.07666,-0.02476 l 0.229146,-0.100135 0.330204,0.0024 0.228404,0.0017 0.151883,0.07759 c 0.0508,3.7e-4 0.101461,0.02598 0.152072,0.05175 0.05061,0.02577 0.07603,0.05164 0.101243,0.07722 l 0.125681,0.127526 c 0.02521,0.02558 0.05044,0.0767 0.100875,0.127862 0.02484,0.07638 0.07529,0.152766 0.100134,0.229146 0.02484,0.07638 0.07451,0.178521 0.124567,0.280484 l -0.0031,0.432004 -0.0011,0.151925 c 0.02484,0.07638 0.02465,0.152912 0.04949,0.229293 0.02484,0.07638 0.02413,0.152392 0.04898,0.228772 l -0.0011,0.152442 c 0.02503,0.05098 0.04965,0.127178 0.0743,0.228958 0.05006,0.101963 0.07466,0.229605 0.124526,0.356966 0.02429,0.152577 0.07411,0.304973 0.123793,0.457734 0.04969,0.152762 0.07411,0.305568 0.123973,0.43293 0.04969,0.152761 0.07385,0.279805 0.09851,0.381583 0.05006,0.101965 0.0751,0.178241 0.100321,0.203825 -1.85e-4,0.0254 -8.98e-4,0.101927 0.04897,0.229288 0.02466,0.10178 0.04916,0.254225 0.09903,0.381587 0.04987,0.127363 0.07404,0.254406 0.09851,0.381584 0.05006,0.101963 0.04986,0.178057 0.04968,0.203455 0.02503,0.05098 0.05,0.0767 0.07503,0.127674 -3.7e-4,0.0508 0.02476,0.07651 0.02439,0.127305 0.02521,0.02558 0.02495,0.05075 0.02477,0.07614 0.02484,0.07638 0.04989,0.153019 0.09995,0.254984 0.02447,0.127177 0.07466,0.229088 0.124531,0.356451 0.02447,0.127176 0.07422,0.229162 0.09888,0.330941 0.04987,0.127362 0.07492,0.203484 0.09995,0.254466 l 0.101799,7.42e-4 0.101285,7.38e-4 0.127859,-0.100357 c 0.02595,-0.07601 0.07754,-0.177257 0.154847,-0.329093 0.05172,-0.126622 0.12911,-0.304009 0.206416,-0.455845 0.07749,-0.177233 0.154983,-0.379709 0.232472,-0.556943 0.07768,-0.202632 0.155582,-0.380221 0.207674,-0.557642 0.07749,-0.177234 0.129552,-0.35421 0.181273,-0.480833 0.05191,-0.15202 0.103057,-0.25327 0.129012,-0.32928 1.85e-4,-0.0254 9.94e-4,-0.07616 0.02713,-0.177574 0.02595,-0.07601 0.05186,-0.177678 0.07781,-0.253688 0.02614,-0.101409 0.05186,-0.1776 0.078,-0.279009 0.02595,-0.07601 0.02676,-0.126338 0.02695,-0.151736 l 0.230809,-0.32854 c 1.85e-4,-0.0254 0.02569,-0.05081 0.02606,-0.101615 0.02577,-0.05061 0.05182,-0.101195 0.07777,-0.177205 l 0.07707,-0.151888 c 0.02577,-0.05061 0.05119,-0.07603 0.05138,-0.101431 l 0.105871,-0.557866 c 0,0 0.05104,-0.0758 0.102577,-0.177024 0.05154,-0.101224 0.103749,-0.227789 0.18087,-0.354225 0.05172,-0.126622 0.12863,-0.227607 0.180351,-0.354229 0.05154,-0.101224 0.07726,-0.177131 0.07745,-0.20253 1.85e-4,-0.0254 2.94e-4,-0.05093 0.02625,-0.126937 5.55e-4,-0.0762 0.02643,-0.152023 0.02698,-0.228218 0.02595,-0.07601 0.02687,-0.152538 0.05283,-0.228548 5.55e-4,-0.0762 0.02624,-0.126858 0.02643,-0.152257 0.05135,-0.07583 0.102938,-0.176789 0.154289,-0.252615 0.05117,-0.05043 0.10257,-0.126147 0.153924,-0.201972 0.05135,-0.07583 0.10213,-0.126228 0.127897,-0.17684 L 22.915053,26.0814 c 0.0254,1.85e-4 0.05127,-0.02539 0.07685,-0.0506 0.02558,-0.02521 0.07626,-0.05001 0.101839,-0.07522 0.02558,-0.02521 0.07669,-0.05044 0.12786,-0.100874 0.0254,1.85e-4 0.05049,4.46e-4 0.10147,-0.02458 0.07638,-0.02484 0.127849,-0.04964 0.17883,-0.07466 l 0.152482,-0.07537 c 0.05098,-0.02503 0.0767,-0.05008 0.127491,-0.04971 z"
       id="path970"
       inkscape:connector-curvature="0"
       inkscape:export-xdpi="96"
       inkscape:export-ydpi="96"
       inkscape:export-filename="/home/carsten/Projects/uml/src/ViraquchaUML/img/logo.png" />
    <g
       style="fill-rule:evenodd;image-rendering:optimizeQuality;shape-rendering:geometricPrecision;text-rendering:geometricPrecision"
       id="g907"
       transform="matrix(0.02539914,0,0,0.02539914,30.342887,-6.0743867)">
      <g
         id="Ebene 1" />
    </g>
    <text
       xml:space="preserve"
       style="font-style:normal;font-variant:normal;font-weight:normal;font-stretch:normal;font-size:10.58333302px;line-height:1.25;font-family:'Courier 10 Pitch';-inkscape-font-specification:'Courier 10 Pitch';letter-spacing:0px;word-spacing:0px;fill:#000000;fill-opacity:1;stroke:none;stroke-width:0.26458332"
       x="38.880981"
       y="40.510422"
       id="text829"
       inkscape:export-filename="/home/carsten/Projects/uml/src/ViraquchaUML/img/logo.png"
       inkscape:export-xdpi="96"
       inkscape:export-ydpi="96"><tspan
         sodipodi:role="line"
         id="tspan827"
         x="38.880981"
         y="40.510422"
         style="font-style:italic;font-variant:normal;font-weight:normal;font-stretch:normal;font-size:3.52777767px;font-family:'Noto Sans';-inkscape-font-specification:'Noto Sans Italic';stroke-width:0.26458332">The open source UML tool</tspan></text>
  </g>
</svg>
