<?xml version="1.0" encoding="UTF-8" standalone="no"?>
<!-- Creator: CorelDRAW -->

<svg
   xmlns:dc="http://purl.org/dc/elements/1.1/"
   xmlns:cc="http://creativecommons.org/ns#"
   xmlns:rdf="http://www.w3.org/1999/02/22-rdf-syntax-ns#"
   xmlns:svg="http://www.w3.org/2000/svg"
   xmlns="http://www.w3.org/2000/svg"
   xmlns:sodipodi="http://sodipodi.sourceforge.net/DTD/sodipodi-0.dtd"
   xmlns:inkscape="http://www.inkscape.org/namespaces/inkscape"
   xml:space="preserve"
   width="8.26772in"
   height="11.6929in"
   style="shape-rendering:geometricPrecision; text-rendering:geometricPrecision; image-rendering:optimizeQuality; fill-rule:evenodd"
   viewBox="0 0 8268 11692"
   version="1.1"
   id="svg863"
   sodipodi:docname="logo..svg"
   inkscape:version="0.92.3 (2405546, 2018-03-11)"><metadata
   id="metadata867"><rdf:RDF><cc:Work
       rdf:about=""><dc:format>image/svg+xml</dc:format><dc:type
         rdf:resource="http://purl.org/dc/dcmitype/StillImage" /></cc:Work></rdf:RDF></metadata><sodipodi:namedview
   pagecolor="#ffffff"
   bordercolor="#666666"
   borderopacity="1"
   objecttolerance="10"
   gridtolerance="10"
   guidetolerance="10"
   inkscape:pageopacity="0"
   inkscape:pageshadow="2"
   inkscape:window-width="1618"
   inkscape:window-height="893"
   id="namedview865"
   showgrid="false"
   inkscape:zoom="2.144278"
   inkscape:cx="221.91842"
   inkscape:cy="952.78293"
   inkscape:window-x="226"
   inkscape:window-y="46"
   inkscape:window-maximized="0"
   inkscape:current-layer="svg863" />
 <defs
   id="defs844">
  <style
   type="text/css"
   id="style842">
   <![CDATA[
    .fil2 {fill:#1F1A17}
    .fil0 {fill:#009F3C}
    .fil1 {fill:#FFFFFF}
   ]]>
  </style>
 </defs>
 <g
   id="Ebene 1"
   transform="matrix(1.9063091,0,0,1.9063091,-2092.355,-1503.5291)">
  <circle
   class="fil0"
   cx="1491"
   cy="1179"
   r="308"
   id="circle846"
   style="fill:#009f3c" />
  <path
   class="fil1"
   d="m 1315,1080 v -4 c 0,-1 0,-3 1,-5 1,-3 2,-5 3,-8 1,-2 2,-5 3,-7 1,-3 2,-5 2,-6 l 4,-8 c 2,-2 4,-3 5,-5 1,-1 3,-2 4,-3 1,-1 2,-1 3,-1 l 9,-4 h 13 9 c 2,1 4,2 6,3 2,0 4,1 6,2 2,1 3,2 4,3 l 5,5 c 1,1 3,3 4,6 1,2 3,5 4,8 2,3 3,7 5,11 v 17 c 0,1 0,3 1,6 0,3 1,6 1,9 1,3 1,6 2,9 0,3 1,5 1,6 0,2 1,5 2,9 2,4 3,9 5,14 1,6 3,12 5,18 2,6 4,12 5,17 2,6 3,11 5,15 1,4 2,7 3,8 0,1 1,4 2,9 1,5 3,10 4,15 2,5 3,10 5,15 1,5 2,7 2,8 0,2 1,4 2,5 0,2 1,3 1,5 1,1 1,2 1,4 1,2 2,5 4,9 2,5 3,9 5,14 1,5 3,9 5,14 1,4 2,7 3,9 h 5 4 l 4,-4 c 2,-3 4,-7 6,-12 2,-6 5,-12 8,-19 3,-7 6,-15 9,-22 3,-8 6,-15 9,-22 2,-7 5,-14 7,-19 1,-6 3,-10 4,-13 0,-1 0,-3 1,-7 1,-3 2,-6 3,-10 1,-4 2,-7 3,-11 1,-3 2,-5 2,-6 l 8,-13 c 0,-1 1,-2 2,-4 1,-2 1,-4 3,-7 1,-2 2,-4 3,-6 0,-2 1,-3 1,-4 l 5,-21 c 0,-1 1,-4 3,-8 2,-4 4,-9 7,-14 2,-5 5,-9 7,-14 2,-4 3,-7 3,-8 0,-1 0,-2 1,-5 0,-3 1,-6 1,-9 1,-3 2,-6 2,-9 1,-3 1,-5 1,-6 2,-3 4,-6 7,-9 2,-3 4,-6 5,-9 2,-3 4,-5 5,-7 l 5,-5 c 1,0 2,-1 3,-2 1,0 3,-1 4,-2 2,-2 3,-3 5,-5 1,0 3,0 5,-1 2,-1 4,-2 6,-3 2,-1 4,-2 6,-3 2,-1 4,-2 5,-2 h 9 8 l 8,5 4,4 c 0,3 1,6 3,9 1,4 2,7 2,9 v 12 9 l -5,8 -8,13 c -2,3 -5,5 -8,7 -4,1 -7,3 -9,6 -9,11 -16,22 -21,34 -5,12 -10,23 -14,35 l -8,16 c 0,1 0,3 -1,6 -1,3 -2,6 -4,9 -1,3 -3,6 -4,9 -2,3 -3,5 -4,6 l -9,22 -4,8 c 0,1 0,4 -2,8 -1,3 -2,8 -4,12 -2,4 -3,8 -4,12 -2,3 -2,6 -2,7 l -9,17 c -2,4 -3,8 -4,12 -2,3 -2,6 -3,9 -1,4 -2,6 -2,9 l -4,17 c -1,2 -3,7 -5,14 -3,8 -5,16 -8,24 -3,9 -5,17 -8,24 -2,7 -4,12 -5,14 l -4,23 c -3,3 -6,6 -9,9 -2,3 -5,5 -7,8 -3,3 -5,6 -6,8 l -4,4 -8,4 h -8 -14 c -2,0 -3,-1 -5,-2 -1,0 -2,-1 -4,-1 -2,-1 -3,-1 -4,-1 -2,0 -4,-1 -6,-3 -3,-1 -5,-3 -7,-6 l -4,-8 c 0,-1 0,-3 0,-5 -1,-2 -1,-3 -2,-5 0,-2 -1,-5 -2,-7 0,-1 0,-4 0,-9 -1,-5 -2,-11 -2,-17 -1,-6 -1,-11 -2,-16 0,-5 -1,-8 -1,-9 0,-1 0,-3 0,-6 -1,-3 -1,-6 -2,-9 0,-4 0,-7 -1,-9 0,-3 0,-5 0,-6 -2,-3 -3,-8 -5,-15 -1,-7 -3,-14 -4,-21 -2,-7 -4,-14 -5,-20 -2,-6 -3,-10 -4,-12 0,-2 -1,-4 -2,-9 -2,-5 -4,-10 -6,-15 -2,-5 -4,-10 -6,-15 -2,-5 -3,-8 -3,-9 l -4,-17 c -1,-2 -3,-5 -4,-10 -2,-4 -4,-8 -5,-13 -2,-5 -3,-9 -5,-13 -1,-3 -3,-6 -3,-7 0,-1 -1,-3 -3,-5 -2,-3 -4,-6 -6,-9 -2,-4 -4,-7 -5,-10 -2,-3 -3,-5 -3,-6 0,-1 -1,-2 -2,-5 -2,-2 -3,-5 -5,-7 -1,-3 -3,-5 -4,-8 -2,-2 -2,-4 -2,-5 z"
   id="path848"
   inkscape:connector-curvature="0"
   style="fill:#ffffff" />
  <g
   id="g858">
   <path
   class="fil0"
   d="m 1819,1423 c 0,-1 0,-4 0,-7 0,-3 -1,-7 -1,-10 0,-4 0,-7 0,-11 -1,-3 -1,-5 -1,-7 0,-2 0,-4 -1,-6 0,-2 0,-3 0,-5 -1,-2 -1,-3 -1,-4 0,-1 0,-2 0,-4 0,-1 -1,-3 -1,-4 0,-2 -1,-4 -1,-6 l -2,-8 v -13 l -3,-8 c 0,0 -1,-1 -1,-1 0,-1 0,-2 -1,-3 0,0 0,-1 0,-2 v -8 -5 c 0,-1 0,-1 0,-2 1,-1 1,-2 2,-3 0,-1 1,-2 2,-3 0,-1 1,-1 1,-2 1,-1 2,-1 2,-2 1,0 2,-1 2,-1 1,-1 2,-1 2,-1 l 4,-2 c 1,0 1,0 2,0 1,0 2,-1 3,-1 1,0 2,-1 3,-1 0,0 1,0 2,1 1,0 2,1 3,1 2,1 3,2 4,2 1,1 2,2 2,2 l 4,4 c 0,0 0,1 1,2 0,0 1,1 1,2 0,1 1,1 1,2 1,1 1,1 1,2 v 1 2 c 0,1 0,2 -1,3 0,1 -1,3 -1,4 0,2 -1,3 -1,5 -1,1 -1,2 -1,2 0,1 0,2 0,3 0,1 -1,2 -1,3 0,1 0,3 -1,4 v 17 20 c 0,0 0,1 1,2 0,1 0,2 0,4 0,1 1,2 1,3 0,1 0,2 0,2 0,1 1,2 1,3 1,1 1,2 2,3 1,2 1,3 2,4 1,1 1,2 1,2 0,1 0,1 0,2 0,0 1,1 1,1 0,1 1,2 1,3 v 2 3 c 0,1 0,2 0,3 -1,1 -1,3 -1,4 0,2 -1,3 -1,5 0,1 -1,2 -1,2 -1,1 -1,2 -2,2 0,1 0,2 -1,2 0,0 -1,1 -2,2 0,0 -1,1 -2,1 l -2,3 h -5 -8 l -4,-2 -2,-2 z m -9,-179 v -4 c 0,-1 0,-3 1,-5 1,-3 1,-4 1,-6 l 2,-4 2,-2 c 1,0 2,-1 3,-2 1,0 3,-1 4,-2 2,-1 4,-1 6,-2 1,0 1,1 2,1 2,1 3,1 4,1 1,0 2,1 3,1 1,1 2,2 3,3 1,1 2,1 3,2 1,1 2,1 2,2 1,1 3,2 4,2 v 7 6 c -1,1 -3,2 -4,4 0,0 -1,1 -2,2 -1,1 -2,2 -3,2 -1,2 -2,3 -4,3 -2,1 -3,1 -4,1 h -8 -9 l -4,-1 -2,-5 z m 72,185 v -15 c 0,-1 0,-2 0,-3 0,-2 0,-4 0,-6 0,-2 0,-4 -1,-5 0,-2 0,-3 0,-4 v -6 c 0,0 0,-1 0,-2 0,-1 0,-2 0,-4 v -5 c 0,0 0,-1 0,-2 0,-2 0,-3 1,-5 0,-2 1,-4 1,-6 0,-2 1,-4 1,-6 0,-2 1,-3 1,-5 0,-1 0,-2 0,-2 v -12 -15 c 0,-1 0,-2 0,-3 0,-1 0,-3 -1,-4 0,-2 0,-3 0,-4 0,-1 0,-2 0,-3 l -2,-5 v -2 c 0,-1 1,-2 1,-4 1,-1 1,-3 2,-4 l 2,-6 c 0,0 1,-1 1,-2 1,-1 2,-2 2,-3 1,0 2,-1 2,-2 1,0 2,-1 2,-1 h 5 8 c 0,0 1,0 2,1 0,0 1,0 1,0 1,1 2,1 2,1 1,1 1,2 2,2 1,1 2,2 3,3 0,1 1,2 2,3 0,1 0,2 0,4 0,1 0,3 -1,5 0,2 0,4 0,6 -1,2 -1,3 -1,3 l 6,-4 6,-4 c 0,0 1,0 1,-1 1,0 2,-1 3,-1 1,-1 2,-1 3,-2 1,0 2,-1 4,-2 1,0 3,-1 5,-2 1,0 3,-1 4,-1 2,-1 3,-1 3,-1 h 2 4 c 0,0 1,0 2,0 1,1 2,1 3,1 1,0 2,1 4,1 1,1 2,2 3,3 1,1 2,2 3,3 1,0 2,1 2,2 1,1 2,2 3,3 1,1 1,2 1,4 v 2 l -4,4 -3,2 h -12 l -3,1 c -1,1 -2,1 -3,1 -1,0 -2,1 -4,2 -2,0 -4,1 -6,2 -2,0 -4,1 -6,2 -2,1 -3,1 -4,2 l -2,2 c 0,0 0,1 -1,2 -1,1 -1,2 -3,4 -1,1 -2,2 -3,4 0,1 -1,2 -2,3 l -4,6 c 0,1 -1,1 -1,2 -1,1 -1,3 -2,4 0,1 -1,2 -2,4 0,1 0,2 -1,2 0,1 0,2 0,3 -1,0 -1,1 -1,2 0,0 0,1 0,3 0,2 0,4 -1,7 0,2 0,4 0,6 0,2 0,4 0,5 v 4 2 c 0,1 0,3 0,4 1,1 1,2 1,3 0,1 0,2 0,3 0,0 0,1 1,2 0,0 0,1 0,2 1,1 1,2 1,3 l 4,8 v 4 3 l -2,4 c -1,1 -2,2 -3,3 -1,0 -2,1 -2,1 -1,1 -2,2 -2,2 l -4,2 c 0,0 -1,0 -2,0 -1,1 -1,1 -2,1 -1,0 -2,1 -3,1 -1,0 -2,-1 -2,-1 -1,0 -1,0 -2,-1 -1,0 -1,0 -2,0 0,0 -1,0 -2,0 0,-1 -1,-1 -2,-2 -1,0 -2,-1 -3,-2 z m 172,-10 h -1 l -4,6 -4,4 c 0,0 -1,1 -2,1 -1,1 -3,2 -4,3 -2,1 -3,2 -4,3 -2,0 -3,1 -4,1 -1,0 -2,1 -4,2 -1,1 -2,2 -3,2 h -2 l -5,-2 c -1,0 -2,0 -3,0 -1,-1 -2,-1 -4,-2 -1,0 -2,0 -3,-1 -2,0 -2,0 -3,0 l -3,-2 c -1,-1 -2,-2 -3,-3 0,-1 -1,-2 -1,-2 -1,-1 -2,-2 -2,-2 -1,-2 -2,-4 -2,-6 -1,-2 -1,-3 -1,-5 0,0 0,-1 -1,-3 0,-1 0,-2 0,-3 -1,-2 -1,-3 -1,-5 v -18 -14 c 0,-1 0,-2 0,-3 0,-2 0,-3 1,-5 0,-2 1,-4 1,-6 0,-2 1,-3 1,-4 0,0 1,-1 1,-2 1,-2 1,-3 2,-4 1,-2 1,-3 2,-4 0,-1 1,-2 1,-2 0,-1 0,-1 0,-3 1,-1 1,-2 2,-3 0,-1 0,-2 1,-3 0,-1 0,-2 0,-2 0,0 1,-1 1,-2 0,-1 1,-2 1,-3 0,0 1,-1 1,-2 0,-1 1,-2 1,-2 0,-1 1,-2 1,-3 1,-1 1,-2 2,-2 0,-1 0,-2 0,-2 1,-1 2,-2 3,-4 1,-2 2,-4 3,-5 1,-2 2,-5 3,-7 1,-1 2,-2 3,-3 1,-1 2,-2 3,-2 1,-1 1,-2 2,-2 l 3,-2 h 4 4 c 1,0 1,0 2,1 1,0 2,0 3,0 0,1 1,1 2,1 0,0 1,0 1,0 1,0 1,0 2,1 0,0 1,0 2,0 0,0 1,1 2,2 1,1 2,2 3,3 2,1 3,2 4,3 1,1 1,1 2,1 2,1 3,2 5,2 2,0 4,1 5,2 1,0 1,0 2,0 1,0 1,1 2,1 0,0 1,0 2,1 1,0 2,0 3,1 1,0 1,1 2,2 l 2,4 v 5 5 l -2,6 c 0,0 0,2 0,4 0,1 -1,3 -1,6 0,2 0,4 0,6 0,2 0,3 0,4 0,0 0,1 -1,2 0,1 0,2 0,3 -1,1 -1,2 -1,3 0,1 0,2 0,2 v 9 11 c 0,0 0,1 0,3 0,1 0,2 1,4 0,2 0,3 0,5 1,1 1,2 1,2 0,1 0,2 0,3 1,1 1,2 1,3 1,1 1,2 1,3 1,1 1,2 1,2 0,1 0,1 0,2 1,0 1,1 2,1 0,1 1,2 2,2 0,1 1,2 2,2 0,1 1,1 1,2 1,0 1,0 2,0 l 4,2 h 3 6 c 0,0 1,-1 2,-1 0,0 1,0 1,-1 1,0 2,0 2,0 1,-1 3,-1 4,-2 1,0 2,-1 3,-1 1,0 1,-1 2,-1 h 2 2 l 3,4 2,3 v 2 2 l -2,4 c -1,0 -1,1 -2,2 -2,0 -3,1 -4,2 -2,1 -3,2 -4,3 -1,1 -2,1 -3,2 0,0 -1,1 -2,1 -1,1 -2,1 -3,2 -1,0 -2,1 -3,1 -1,1 -2,1 -2,1 -2,0 -4,0 -5,1 -1,0 -2,0 -4,0 -1,1 -2,1 -2,1 h -3 c -2,0 -5,-1 -7,-2 -2,-1 -4,-2 -6,-4 -1,0 -1,-1 -2,-1 -1,-1 -2,-2 -4,-3 -1,-1 -2,-2 -3,-3 -1,0 -2,-1 -2,-1 l -3,-4 c -1,0 -2,-1 -2,-2 l -2,-4 z m -45,-28 v 5 l 1,2 c 1,1 1,1 1,2 0,1 0,1 0,1 l 2,4 5,5 h 2 4 l 3,-1 c 1,-1 3,-2 5,-3 1,-2 3,-4 5,-6 2,-1 4,-3 5,-5 2,-2 3,-3 3,-4 0,-1 1,-1 1,-2 0,-1 1,-2 1,-4 0,-1 1,-2 1,-3 0,-1 1,-1 1,-2 0,0 0,-1 0,-2 0,-1 0,-1 1,-2 0,-1 0,-2 1,-3 v -16 -14 l -2,-6 c 0,0 -1,-1 -1,-2 0,0 -1,-1 -1,-2 l -2,-3 c 0,0 -1,-1 -2,-2 0,-1 -1,-1 -2,-2 -1,-1 -2,-2 -3,-3 -1,-1 -1,-1 -1,-2 h -2 c -1,1 -2,1 -3,2 0,1 -1,1 -1,2 -1,0 -2,1 -2,1 -1,1 -1,2 -2,3 0,0 -1,1 -1,1 0,1 0,2 0,2 l -2,3 c -1,1 -1,2 -2,3 0,1 -1,2 -2,4 0,1 -1,2 -1,4 0,1 -1,2 -1,2 l -1,5 -2,4 -1,2 c 0,1 0,1 -1,2 0,0 0,1 0,1 0,1 0,1 0,2 0,1 -1,2 -1,3 0,0 0,1 -1,2 0,1 0,2 0,4 0,1 0,3 -1,4 0,2 0,4 0,5 -1,2 -1,3 -1,3 z"
   id="path850"
   inkscape:connector-curvature="0"
   style="fill:#009f3c" />
   <path
   class="fil0"
   d="m 2200,1397 -2,-2 -4,2 c -1,0 -2,1 -3,1 -1,1 -2,2 -3,3 -1,1 -3,2 -4,4 -1,1 -1,1 -2,2 0,0 -2,1 -3,3 -2,1 -4,3 -6,5 -2,2 -3,3 -5,5 -2,1 -3,2 -3,3 l -5,2 c -1,0 -2,1 -3,2 -1,0 -2,1 -2,1 l -4,2 c -1,1 -2,2 -3,2 -1,0 -2,1 -3,1 -1,1 -2,1 -4,1 h -4 -4 c 0,0 -1,0 -2,0 -1,0 -2,-1 -4,-1 -1,0 -2,0 -3,0 -1,0 -2,-1 -3,-1 l -4,-2 c 0,0 -1,-1 -2,-2 -1,-1 -2,-1 -2,-2 -1,-1 -2,-2 -3,-3 -1,-1 -2,-2 -2,-2 v -2 l 2,-8 v -14 c 0,0 0,-1 0,-2 1,-1 1,-2 2,-4 0,-1 0,-2 1,-3 0,-1 0,-2 0,-2 0,-1 1,-2 1,-4 1,-2 2,-4 2,-6 1,-2 2,-4 2,-6 1,-2 1,-3 1,-4 l 2,-4 c 1,0 1,-1 2,-2 1,-1 2,-3 2,-4 1,-1 2,-2 2,-3 1,-1 2,-2 2,-3 1,0 1,-1 2,-1 1,-1 1,-2 2,-3 1,-1 2,-2 2,-3 l 4,-4 c 0,-1 0,-2 1,-3 1,-1 1,-2 2,-3 1,-1 1,-2 2,-4 1,-1 1,-1 1,-2 0,0 0,-1 1,-2 1,-1 2,-3 3,-4 1,-1 2,-2 3,-3 1,-1 2,-2 3,-3 0,0 1,-1 2,-2 1,-1 2,-2 4,-4 1,-1 2,-2 3,-3 1,-1 2,-2 3,-3 0,0 1,-1 3,-2 1,-1 3,-2 4,-3 2,-2 4,-3 5,-4 2,-1 3,-1 3,-2 1,0 2,-1 2,-1 1,0 2,0 2,-1 1,0 2,0 2,0 1,0 2,0 3,0 2,0 4,0 6,0 2,-1 4,-1 5,-1 2,0 3,-1 4,-1 h 8 7 c 1,0 2,0 2,1 1,0 2,1 3,1 1,1 2,1 3,1 1,1 2,1 2,1 l 2,2 c 1,1 1,1 2,2 0,1 0,1 0,2 0,0 0,1 1,2 0,1 1,2 1,3 1,1 1,2 1,3 1,0 1,1 1,2 v 2 3 c 0,1 0,2 -1,3 -1,2 -1,3 -2,6 -1,2 -1,4 -2,6 -1,2 -1,4 -1,7 0,0 0,1 0,3 -1,1 -1,3 -1,5 0,1 0,3 -1,5 0,1 0,2 0,2 0,1 0,2 -1,4 0,2 0,4 -1,6 0,2 -1,4 -1,6 -1,2 -1,3 -1,4 v 23 30 c 0,1 0,2 0,5 1,2 1,4 1,7 0,3 0,5 1,8 0,2 0,4 0,5 0,0 0,1 0,2 1,1 1,2 1,4 0,1 1,2 1,4 0,0 0,1 0,3 1,1 1,3 1,5 0,1 0,3 1,4 0,2 0,3 0,3 0,1 0,2 1,4 0,1 1,3 1,5 1,2 1,4 1,6 1,2 1,4 1,5 l 2,7 c 0,1 0,2 0,3 1,1 1,2 1,3 0,1 0,3 1,4 0,1 0,2 0,2 0,1 1,2 1,2 0,1 0,2 1,2 0,1 0,1 0,2 0,0 0,2 1,3 1,2 2,4 3,6 1,2 2,4 3,5 0,2 1,3 1,4 l 2,5 v 2 l -2,4 c -1,1 -1,1 -2,3 -1,1 -2,2 -3,4 -1,1 -2,3 -3,5 l -4,2 h -4 -4 c 0,0 -1,0 -2,-1 -1,-1 -1,-1 -2,-2 -1,-1 -1,-2 -2,-3 -1,-1 -1,-1 -2,-2 0,-1 0,-1 -1,-2 0,-1 0,-2 0,-2 -1,-1 -1,-1 -1,-2 0,0 0,-1 0,-3 0,-2 0,-4 -1,-5 0,-2 0,-4 0,-6 -1,-2 -1,-3 -1,-3 l -2,-8 c 0,-1 0,-2 0,-5 -1,-2 -1,-5 -1,-8 -1,-3 -1,-5 -2,-8 0,-2 0,-4 0,-4 0,-1 -1,-2 -1,-3 0,-1 -1,-2 -1,-3 -1,-1 -1,-3 -2,-4 0,-1 0,-2 0,-2 0,-1 0,-2 -1,-4 0,-1 0,-3 0,-5 -1,-2 -1,-4 -1,-5 0,-2 0,-3 0,-4 0,0 0,-1 -1,-2 0,-1 0,-3 0,-4 -1,-2 -1,-3 -1,-4 0,-2 0,-3 0,-3 0,-1 0,-1 -1,-3 0,-1 0,-2 0,-3 -1,-1 -1,-2 -1,-4 0,-1 0,-2 0,-2 -1,-1 -1,-3 -1,-4 0,-1 0,-2 -1,-3 0,-1 0,-2 0,-3 0,-1 0,-4 0,-7 0,-3 -1,-7 -1,-10 0,-4 0,-7 -1,-11 0,-3 0,-5 0,-7 z m -67,0 c 1,1 1,2 1,2 1,1 1,2 1,2 0,1 0,2 0,2 l 2,2 4,2 c 1,0 1,0 2,-1 1,0 3,0 4,0 1,-1 2,-1 3,-1 1,-1 2,-1 3,-2 0,-1 1,-1 2,-2 0,0 1,-1 2,-1 0,-1 1,-1 1,-1 1,0 2,0 3,-1 0,-1 1,-2 3,-3 1,-1 2,-2 3,-2 0,-1 1,-2 2,-2 l 7,-5 4,-4 c 1,-1 1,-2 2,-3 1,-1 3,-2 4,-3 1,-2 2,-3 3,-4 1,-1 1,-2 1,-2 0,-1 1,-1 2,-2 0,-1 1,-2 2,-3 0,-1 1,-2 1,-3 1,-1 1,-1 1,-2 0,-1 0,-3 1,-4 0,-1 0,-3 0,-4 1,-1 1,-2 1,-3 v -2 c 0,-1 0,-2 0,-3 0,-2 0,-3 0,-5 0,-2 0,-3 1,-6 l -2,-4 c -1,0 -1,-1 -2,-1 -1,-1 -1,-1 -2,-2 -1,0 -2,-1 -2,-2 -1,0 -2,1 -3,1 -1,0 -1,0 -2,0 -1,0 -1,0 -2,0 h -4 c -1,0 -1,1 -2,1 -1,1 -1,1 -2,2 0,0 -1,1 -2,1 0,1 -1,1 -2,2 -1,0 -1,1 -2,1 -1,1 -2,2 -3,3 l -4,4 c -1,0 -2,1 -3,3 -1,1 -3,3 -4,5 -1,2 -3,4 -4,6 -1,3 -3,5 -4,7 -1,2 -2,3 -3,5 -1,1 -2,2 -2,3 -1,1 -1,1 -2,2 0,1 -1,2 -2,4 0,1 -1,2 -1,3 -1,1 -1,2 -1,3 0,1 -1,2 -1,3 0,2 -1,3 -1,4 0,1 0,2 0,3 0,1 0,2 -1,3 0,1 0,3 -1,4 z m 208,0 c -1,1 -1,1 -2,2 -1,1 -2,2 -3,3 0,1 -1,2 -2,3 -1,1 -1,1 -2,2 l -3,5 c 0,0 -1,1 -1,2 -1,1 -2,2 -2,3 -1,0 -2,1 -3,2 -1,1 -1,2 -2,2 l -2,2 c -1,1 -2,3 -3,4 -2,1 -3,2 -5,3 -2,1 -3,3 -5,4 l -8,2 -7,-1 -7,-1 c -1,-1 -1,-1 -2,-1 -1,-1 -2,-2 -2,-3 0,0 0,-1 0,-1 -1,-1 -1,-2 -2,-2 0,-1 -1,-1 -1,-2 -1,-1 -1,-2 -1,-3 -1,0 -1,-1 -1,-1 0,-1 0,-2 0,-2 0,-1 0,-1 -1,-2 0,-1 0,-2 0,-3 -1,-1 -1,-2 -1,-3 0,0 -1,-1 -1,-3 0,-2 0,-4 -1,-7 0,-2 -1,-5 -1,-7 0,-3 -1,-6 -1,-8 -1,-3 -1,-5 -1,-7 -1,-1 -1,-3 -1,-3 0,-2 0,-3 -1,-4 0,-3 0,-4 0,-6 v -7 c 0,-1 -1,-1 -1,-2 0,-1 0,-2 0,-3 0,-1 -1,-2 -1,-2 0,-1 0,-2 0,-3 v -5 c 0,-1 0,-2 -1,-4 -1,-2 -1,-3 -1,-4 0,0 0,-1 -1,-3 -1,-2 -1,-4 -2,-6 -1,-2 -1,-4 -2,-6 -1,-2 -1,-3 -1,-3 v -2 -4 l 1,-4 c 0,0 1,-1 2,-2 0,-1 1,-2 2,-3 1,-1 2,-2 3,-2 1,-1 1,-2 2,-3 1,0 2,-1 3,-2 1,0 1,-1 2,-1 h 4 3 c 1,1 2,2 3,3 1,1 2,2 3,2 1,1 1,2 2,2 1,1 2,3 3,4 1,2 2,3 2,4 0,1 1,1 1,2 1,1 1,2 1,3 1,1 1,2 2,3 l -2,7 c 0,1 -1,1 -1,2 0,1 0,2 0,4 -1,1 -1,2 -1,3 v 8 7 c 0,1 0,2 0,4 0,2 0,4 1,6 0,2 0,4 0,7 0,2 1,3 1,4 0,1 0,2 0,4 0,1 0,3 1,4 0,2 0,3 0,5 1,1 1,2 1,2 l 2,6 c 0,0 0,1 0,1 1,1 1,2 2,3 1,0 1,1 2,2 h 2 4 l 5,-2 c 1,-1 2,-2 4,-4 1,-1 2,-2 3,-3 l 4,-6 6,-8 c 0,0 1,-1 1,-2 1,-2 1,-3 2,-5 1,-2 1,-3 1,-5 1,-1 1,-2 1,-3 0,0 0,-1 0,-3 0,-1 0,-3 0,-4 0,-2 0,-4 0,-5 1,-2 1,-3 1,-3 0,-2 0,-3 0,-4 1,-1 1,-2 1,-3 0,-1 0,-2 0,-3 v -5 -4 l -1,-6 c 0,0 -1,-1 -1,-1 0,-1 0,-2 0,-3 -1,-1 -1,-2 -1,-3 v -6 -4 c 0,-1 0,-2 1,-4 0,-1 0,-2 1,-3 0,0 0,-1 0,-2 1,-1 2,-1 3,-2 0,-1 1,-2 2,-2 1,-1 1,-1 2,-1 0,0 1,0 2,-1 1,0 2,-1 3,-1 0,-1 1,-1 2,-2 1,0 2,0 2,0 h 5 4 c 0,0 1,0 2,0 0,1 1,1 2,2 0,0 1,1 2,1 0,1 1,1 1,1 l 2,3 v 7 8 c 0,1 0,2 0,3 -1,1 -1,2 -2,3 0,1 0,2 -1,3 0,1 0,2 0,3 v 37 6 5 c 0,1 0,3 0,4 0,2 0,4 0,6 1,1 1,3 1,5 0,1 0,2 0,2 0,1 1,2 1,3 0,1 1,3 1,4 1,1 1,3 2,4 0,1 0,2 0,2 l 2,4 c 0,1 1,1 2,3 1,1 2,2 3,4 1,1 2,2 2,3 1,2 2,2 3,3 0,0 1,1 1,2 1,0 1,1 1,2 1,0 1,1 1,1 l 2,4 v 2 c 0,1 0,2 -1,3 0,1 -1,2 -2,3 0,1 -1,2 -2,3 0,1 0,2 0,2 l -4,4 -4,2 h -2 c 0,0 0,0 0,0 -1,0 -1,0 -1,0 0,0 -1,0 -1,0 -1,0 -2,0 -3,-1 -1,0 -1,0 -2,0 -1,0 -2,-1 -2,-1 -1,0 -1,0 -2,0 -1,0 -1,0 -2,-1 0,0 -1,0 -2,-1 l -2,-2 c 0,0 -1,-1 -1,-1 -1,-1 -1,-2 -2,-2 0,-1 0,-1 0,-2 -1,0 -1,-1 -2,-1 0,-1 -1,-2 -2,-2 0,-1 0,-2 -1,-4 0,-2 -1,-5 -1,-7 -1,-3 -1,-5 -2,-7 0,-2 0,-4 0,-4 0,-1 0,-1 -1,-2 0,-1 0,-1 0,-2 0,-1 -1,-2 -1,-2 v -2 z m 55,9 v -9 l 2,-2 2,-9 2,-5 1,-10 c 0,0 0,-1 1,-3 0,-1 1,-3 1,-5 1,-2 1,-3 2,-5 1,-1 1,-2 2,-3 1,-2 1,-3 2,-5 1,-1 1,-3 2,-4 0,-1 1,-3 1,-4 l 2,-4 4,-5 c 1,0 1,-2 3,-3 1,-2 2,-4 3,-5 2,-2 3,-4 5,-6 l 12,-12 c 0,0 1,-1 2,-2 1,-1 2,-2 3,-4 2,-1 3,-3 4,-4 2,-2 3,-3 4,-4 0,-1 1,-1 2,-3 1,-1 2,-2 2,-3 1,-1 2,-3 3,-4 1,0 2,-1 2,-1 h 6 9 l 4,2 4,4 v 5 7 c 0,1 -1,2 -2,3 -1,1 -2,2 -3,3 -2,1 -3,2 -4,3 -2,1 -3,2 -3,2 0,0 -1,1 -2,1 -1,1 -2,1 -3,2 -2,1 -3,1 -4,2 -1,0 -2,1 -2,1 0,0 -1,1 -3,3 -2,1 -3,3 -5,5 -2,1 -4,3 -5,5 -2,1 -3,2 -4,3 0,1 -1,2 -2,3 -1,2 -2,3 -4,5 -1,2 -2,3 -3,5 -1,2 -2,3 -2,4 0,1 0,1 -1,2 0,0 0,1 -1,1 0,1 -1,2 -1,2 0,1 -1,1 -1,2 0,1 -1,3 -2,6 -1,2 -1,4 -2,6 -1,3 -2,5 -2,7 -1,1 -1,3 -1,3 v 7 9 l 1,4 c 0,1 1,1 1,2 1,0 2,1 2,2 1,0 2,1 2,2 1,0 1,1 1,1 0,1 1,2 1,2 1,1 1,1 2,2 1,1 2,1 3,2 l 4,2 h 9 9 c 1,0 2,-1 3,-1 1,0 2,0 3,-1 0,0 1,0 2,0 0,0 1,0 1,0 1,0 2,-1 2,-1 1,0 2,-1 2,-1 l 8,-4 c 1,0 2,-1 4,-1 1,-1 2,-1 4,-2 1,-1 3,-1 5,-2 h 4 3 l 4,4 v 1 2 l -2,4 c 0,1 0,1 -1,2 0,0 -1,1 -1,1 -1,1 -2,1 -3,2 -1,1 -1,1 -2,2 -1,1 -3,2 -4,3 -1,1 -2,1 -3,2 -1,0 -2,1 -2,1 -2,0 -4,1 -6,2 -3,1 -6,3 -8,4 -3,1 -6,3 -8,4 -2,1 -4,2 -5,2 0,0 -1,1 -2,1 -1,0 -2,0 -2,0 -1,1 -2,1 -3,1 -1,0 -2,0 -2,0 h -9 -8 c -1,0 -3,0 -5,-1 -1,0 -2,-1 -3,-1 -2,-1 -3,-1 -3,-2 -1,0 -1,0 -2,0 -1,0 -2,-1 -3,-1 -1,-1 -2,-1 -3,-2 -1,-1 -2,-2 -3,-3 -1,-1 -1,-2 -2,-2 -1,-1 -2,-2 -2,-2 -1,-1 -2,-3 -4,-5 0,-1 -1,-2 -2,-3 l -1,-5 c -1,-2 -2,-3 -3,-4 0,-1 -1,-2 -3,-2 z"
   id="path852"
   inkscape:connector-curvature="0"
   style="fill:#009f3c" />
   <path
   class="fil0"
   d="m 2523,1419 c 0,0 0,-1 0,-2 1,-1 1,-2 2,-3 0,-1 1,-2 1,-2 0,-1 1,-2 1,-3 v -15 c 0,0 0,-2 0,-3 0,-2 0,-4 1,-6 0,-2 0,-4 0,-5 0,-2 1,-3 1,-3 v -2 c 0,-1 -1,-2 -1,-4 0,-2 0,-4 0,-6 -1,-2 -1,-4 -1,-6 0,-2 0,-3 0,-4 0,-2 -1,-4 -1,-8 0,-4 0,-8 0,-13 -1,-4 -1,-8 -1,-11 0,-4 0,-7 0,-8 v -39 c 0,0 0,-1 -1,-2 0,-1 0,-2 0,-4 -1,-1 -1,-2 -1,-3 0,-1 0,-2 0,-2 0,-1 0,-1 0,-3 0,-2 -1,-4 -1,-6 0,-2 0,-4 0,-7 0,-2 -1,-5 -1,-7 0,-2 0,-4 0,-5 0,-2 0,-3 0,-3 0,-2 -1,-3 -1,-4 0,-1 -1,-3 -1,-4 0,-1 0,-1 0,-2 l -2,-8 v -6 -5 c 0,-1 1,-2 1,-2 0,-1 1,-1 1,-2 1,0 1,0 2,0 1,-1 2,-1 3,-2 1,-1 2,-1 3,-1 0,-1 1,-1 2,-1 0,0 1,0 1,0 1,0 2,-1 2,-1 1,0 2,-1 3,-1 h 1 2 l 4,2 c 1,0 1,0 2,1 1,0 1,1 2,1 1,1 1,1 2,2 0,1 0,1 0,2 l 2,4 v 7 8 c 0,1 0,2 0,3 -1,1 -1,2 -1,4 0,1 0,3 -1,4 0,1 0,2 0,3 v 32 31 c 0,2 0,4 0,7 1,2 1,5 1,7 0,3 1,6 1,9 l 2,2 c 0,0 1,-1 2,-2 1,-1 2,-2 3,-2 1,-1 2,-2 3,-3 0,-1 1,-2 2,-2 0,-1 0,-1 1,-3 1,-1 2,-2 3,-3 1,-1 2,-2 2,-4 1,-1 2,-1 2,-2 0,-1 1,-2 2,-3 0,0 1,-1 2,-2 0,0 1,-1 1,-1 l 6,-3 c 1,0 1,0 2,-1 1,0 1,0 2,0 1,-1 1,-1 2,-1 h 6 6 l 4,2 c 1,1 2,1 3,2 0,0 1,1 2,2 0,0 1,1 1,1 0,1 1,2 1,2 1,1 2,2 2,3 1,1 2,2 2,3 1,2 2,3 2,4 1,1 1,2 2,3 0,1 0,2 0,3 0,0 0,1 1,1 0,1 0,2 0,2 1,1 1,2 1,2 0,1 0,2 1,3 0,2 1,3 1,5 1,2 1,4 2,5 0,2 0,3 0,3 l 2,6 c 0,0 0,1 1,2 0,2 0,3 1,5 0,1 1,2 1,4 1,1 1,2 1,2 2,6 4,12 5,18 1,6 3,12 5,17 0,1 0,2 1,3 0,1 0,2 1,3 0,1 1,3 1,4 1,1 1,2 1,2 v 2 4 l -2,4 c -1,0 -1,1 -2,2 -1,1 -2,1 -3,2 l -3,3 c -1,1 -1,1 -2,1 -1,1 -1,1 -2,1 -1,0 -1,0 -2,0 h -3 -4 l -4,-2 -2,-2 c 0,0 -1,-1 -1,-2 0,-1 -1,-2 -1,-3 -1,-2 -1,-3 -2,-4 0,-1 0,-2 0,-2 v -12 c 0,0 0,-1 0,-2 -1,-1 -1,-2 -1,-4 0,-1 -1,-2 -1,-3 0,-1 0,-2 0,-2 0,-1 0,-2 0,-4 -1,-1 -1,-3 -1,-5 -1,-2 -1,-4 -1,-6 0,-1 0,-2 0,-3 l -2,-6 -2,-8 c 0,0 -1,-1 -1,-3 -1,-1 -2,-3 -2,-4 -1,-2 -2,-4 -2,-5 -1,-1 -1,-2 -1,-3 0,0 0,-1 -1,-2 0,-1 -1,-3 -1,-4 -1,-1 -2,-2 -2,-3 -1,-1 -2,-2 -2,-3 l -2,-2 h -2 -2 c -1,1 -1,1 -2,2 0,0 -1,1 -1,1 -1,0 -1,1 -1,1 -2,3 -4,6 -6,9 -3,2 -5,5 -7,8 -1,1 -1,1 -2,3 -1,1 -1,2 -2,3 0,2 -1,3 -1,4 -1,1 -1,2 -1,2 v 8 c 0,1 -1,2 -1,3 0,1 -1,2 -1,4 -1,1 -1,3 -2,4 0,1 0,2 0,2 v 51 c -1,0 -1,1 -1,2 -1,0 -1,1 -2,2 0,0 -1,1 -1,1 -1,1 -1,1 -2,2 -1,1 -2,1 -3,2 -1,0 -2,1 -3,1 -1,1 -1,1 -2,2 l -4,2 h -2 c -1,-1 -2,-2 -5,-3 -2,-1 -3,-3 -4,-4 -1,-1 -2,-2 -2,-3 -1,0 -1,-1 -2,-2 0,-1 0,-2 0,-2 0,-1 0,-2 -1,-3 0,-1 0,-2 0,-3 -1,-1 -1,-2 -1,-4 z m 203,0 h -2 l -4,6 -3,4 c 0,0 -1,1 -2,1 -2,1 -3,2 -4,3 -2,1 -3,2 -5,3 -1,0 -2,1 -3,1 -1,0 -3,1 -4,2 -1,1 -2,2 -3,2 h -2 l -6,-2 c 0,0 -1,0 -2,0 -1,-1 -3,-1 -4,-2 -1,0 -3,0 -4,-1 -1,0 -2,0 -2,0 l -4,-2 c -1,-1 -1,-2 -2,-3 0,-1 -1,-2 -2,-2 0,-1 -1,-2 -1,-2 -1,-2 -2,-4 -3,-6 0,-2 -1,-3 -1,-5 0,0 0,-1 0,-3 0,-1 0,-2 -1,-3 0,-2 0,-3 -1,-5 v -18 -14 c 0,-1 0,-2 1,-3 0,-2 0,-3 0,-5 1,-2 1,-4 2,-6 0,-2 0,-3 1,-4 0,0 0,-1 1,-2 0,-2 1,-3 2,-4 0,-2 1,-3 1,-4 1,-1 1,-2 1,-2 0,-1 0,-1 1,-3 0,-1 1,-2 1,-3 1,-1 1,-2 1,-3 1,-1 1,-2 1,-2 0,0 0,-1 1,-2 0,-1 0,-2 1,-3 0,0 0,-1 1,-2 0,-1 0,-2 0,-2 1,-1 2,-2 2,-3 1,-1 1,-2 1,-2 1,-1 1,-2 1,-2 1,-1 1,-2 2,-4 1,-2 2,-4 3,-5 1,-2 3,-5 4,-7 1,-1 2,-2 3,-3 1,-1 2,-2 3,-2 0,-1 1,-2 1,-2 l 4,-2 h 3 4 c 1,0 2,0 3,1 1,0 2,0 2,0 1,1 2,1 2,1 1,0 1,0 2,0 0,0 1,0 1,1 1,0 2,0 2,0 1,0 2,1 3,2 1,1 2,2 3,3 1,1 2,2 3,3 1,1 2,1 2,1 2,1 4,2 6,2 2,0 3,1 5,2 0,0 1,0 2,0 0,0 1,1 1,1 1,0 2,0 3,1 0,0 1,0 2,1 1,0 2,1 3,2 l 2,4 v 5 5 l -2,6 c 0,0 0,2 -1,4 0,1 0,3 0,6 0,2 0,4 0,6 -1,2 -1,3 -1,4 0,0 0,1 0,2 0,1 0,2 -1,3 0,1 0,2 0,3 -1,1 -1,2 -1,2 v 9 11 c 0,0 0,1 1,3 0,1 0,2 0,4 1,2 1,3 1,5 0,1 0,2 0,2 0,1 1,2 1,3 0,1 1,2 1,3 0,1 1,2 1,3 0,1 1,2 1,2 0,1 0,1 0,2 0,0 1,1 1,1 1,1 2,2 2,2 1,1 2,2 2,2 1,1 1,1 2,2 1,0 1,0 2,0 l 3,2 h 4 5 c 1,0 2,-1 2,-1 1,0 1,0 2,-1 1,0 1,0 2,0 1,-1 2,-1 3,-2 1,0 2,-1 3,-1 1,0 2,-1 3,-1 h 1 2 l 4,4 2,3 v 2 2 l -2,4 c -1,0 -2,1 -3,2 -1,0 -2,1 -4,2 -1,1 -2,2 -3,3 -2,1 -3,1 -3,2 0,0 -1,1 -2,1 -1,1 -2,1 -3,2 -1,0 -2,1 -3,1 -2,1 -2,1 -3,1 -1,0 -3,0 -4,1 -2,0 -3,0 -4,0 -1,1 -2,1 -2,1 h -4 c -2,0 -4,-1 -6,-2 -2,-1 -5,-2 -6,-4 -1,0 -2,-1 -3,-1 -1,-1 -2,-2 -3,-3 -1,-1 -2,-2 -3,-3 -1,0 -2,-1 -2,-1 l -4,-4 c 0,0 -1,-1 -2,-2 l -1,-4 z m -45,-28 v 5 l 1,2 c 0,1 0,1 1,2 0,1 0,1 0,1 l 2,4 5,5 h 2 4 l 3,-1 c 1,-1 2,-2 4,-3 2,-2 4,-4 6,-6 2,-1 3,-3 5,-5 2,-2 3,-3 3,-4 0,-1 0,-1 1,-2 0,-1 0,-2 1,-4 0,-1 0,-2 1,-3 0,-1 0,-1 0,-2 0,0 0,-1 1,-2 0,-1 0,-1 0,-2 1,-1 1,-2 1,-3 v -16 -14 l -2,-6 c 0,0 0,-1 0,-2 -1,0 -1,-1 -1,-2 l -2,-3 c 0,0 -1,-1 -2,-2 -1,-1 -2,-1 -2,-2 -1,-1 -2,-2 -3,-3 -1,-1 -1,-1 -2,-2 h -2 c 0,1 -1,1 -2,2 0,1 -1,1 -2,2 0,0 -1,1 -1,1 -1,1 -2,2 -2,3 0,0 -1,1 -1,1 -1,1 -1,2 -1,2 l -1,3 c -1,1 -1,2 -2,3 -1,1 -1,2 -2,4 -1,1 -1,2 -1,4 -1,1 -1,2 -1,2 l -2,5 -1,4 -1,2 c -1,1 -1,1 -1,2 0,0 0,1 0,1 0,1 0,1 -1,2 0,1 0,2 0,3 -1,0 -1,1 -1,2 0,1 0,2 0,4 -1,1 -1,3 -1,4 0,2 0,4 -1,5 0,2 0,3 0,3 z m 115,10 c 0,0 0,-1 -1,-2 0,-1 0,-2 0,-3 0,-2 -1,-3 -1,-4 0,-1 0,-2 0,-2 l -2,-10 c -1,-2 -1,-3 -1,-6 0,-2 0,-5 0,-7 0,-2 0,-5 0,-7 0,-1 0,-3 0,-3 v -6 -6 c 0,-1 0,-2 0,-5 0,-2 1,-5 1,-8 0,-3 0,-7 0,-10 0,-4 1,-7 1,-11 0,-3 0,-6 0,-8 0,-2 0,-4 0,-5 v -15 -15 l -2,-4 v -4 -2 c 0,-1 0,-1 1,-3 0,-1 1,-2 1,-3 1,-1 1,-2 2,-3 1,-2 2,-2 2,-3 0,0 0,-1 1,-2 1,0 1,-1 2,-2 1,0 2,-1 3,-2 1,0 2,0 4,-1 1,0 2,0 3,0 1,-1 2,-1 3,-1 h 3 2 c 1,0 2,0 3,1 0,0 1,0 2,0 1,1 2,1 3,1 l 2,2 c 0,1 0,1 1,2 0,1 0,2 1,3 1,1 1,2 2,3 v 2 4 c 0,1 -1,1 -1,2 0,0 0,1 -1,2 0,0 0,1 0,1 0,1 0,3 -1,5 -1,3 -3,5 -4,8 -1,3 -2,6 -3,8 -1,3 -2,5 -2,5 0,0 0,1 0,2 0,1 0,2 -1,3 0,1 0,2 0,2 0,1 -1,2 -1,2 0,1 0,2 0,4 0,3 0,5 0,8 -1,2 -1,5 -1,8 0,2 0,4 0,6 v 1 c 0,3 0,6 0,10 0,4 0,7 0,11 1,4 1,8 1,13 0,1 0,2 0,4 0,2 1,4 1,7 0,2 0,4 0,6 0,2 0,3 0,4 0,1 0,1 0,3 1,1 1,2 1,4 0,2 1,3 1,5 0,1 1,2 1,3 0,1 0,2 1,4 1,1 1,3 2,5 1,2 2,3 3,5 1,1 1,3 2,3 l 2,2 4,2 4,-2 c 0,0 1,0 2,0 0,-1 1,-1 1,-2 1,0 2,-1 2,-2 1,0 2,-1 3,-2 2,0 4,-1 5,-2 2,0 3,-1 4,-2 2,0 2,-1 2,-2 1,0 2,-1 3,-3 1,-2 2,-4 3,-6 1,-2 3,-4 4,-5 1,-2 1,-3 2,-4 3,-3 6,-6 8,-10 2,-4 3,-8 5,-11 1,-4 2,-8 2,-11 1,-3 1,-5 1,-7 v -12 -13 c 0,-1 0,-2 0,-3 -1,-2 -1,-4 -1,-6 0,-2 0,-4 -1,-5 0,-2 0,-3 0,-4 0,0 0,-1 0,-4 0,-2 -1,-5 -1,-7 0,-3 0,-5 -1,-8 0,-2 0,-3 0,-4 0,0 0,-2 -1,-4 0,-1 -1,-3 -1,-6 -1,-2 -1,-4 -2,-6 0,-1 -1,-3 -1,-3 v -8 -8 c 1,0 1,-1 1,-2 0,0 0,-1 -1,-1 0,0 0,-1 -1,-1 0,0 0,0 0,0 1,-1 1,-2 2,-3 1,-1 2,-1 3,-2 1,-1 1,-2 1,-3 1,-1 2,-3 2,-4 1,-2 3,-3 5,-3 h 4 6 c 1,0 2,0 3,0 1,1 2,1 3,2 1,0 3,0 4,1 1,0 2,0 2,0 l 4,4 c 0,1 0,2 0,3 0,1 1,2 1,3 0,1 0,3 0,4 0,1 0,2 0,2 v 6 8 c 0,0 0,1 0,2 -1,1 -1,2 -1,4 0,1 -1,2 -1,3 0,1 0,2 0,3 l -1,5 c 0,1 0,1 -1,2 0,1 0,2 0,3 0,1 -1,2 -1,3 0,1 0,1 0,2 0,1 0,2 0,4 0,2 0,4 -1,6 0,2 0,4 0,6 0,2 0,3 0,3 0,1 0,3 0,5 0,3 0,5 0,8 1,3 1,5 1,7 0,3 0,4 0,5 0,1 0,2 0,4 0,1 1,3 1,6 0,2 1,5 1,8 0,3 1,6 1,9 0,3 1,6 1,8 1,3 1,5 1,6 l 1,4 c 0,1 1,1 1,2 0,1 0,2 0,2 0,1 0,1 0,2 1,1 1,1 1,2 0,1 1,1 1,2 l 2,4 4,7 c 0,1 0,2 0,3 1,0 1,1 1,2 0,0 0,1 0,1 0,1 0,2 0,3 1,1 1,2 1,3 1,1 1,3 1,4 v 6 c 0,0 1,1 1,2 0,0 0,1 0,2 1,0 1,1 1,2 l -2,4 c 0,1 -1,3 -1,4 -1,1 -1,2 -2,3 0,1 -1,2 -2,2 l -1,2 -4,2 h -6 -6 l -4,-2 c 0,0 -1,-1 -2,-2 0,-1 -1,-3 -1,-6 -1,-2 -2,-6 -2,-11 -1,-5 -1,-11 -1,-19 -1,-1 -1,-1 -2,-2 0,0 -1,-1 -1,-1 0,-1 -1,-1 -1,-2 l -2,-1 -2,1 c -1,2 -3,4 -4,7 -2,2 -4,5 -6,7 -2,3 -4,5 -6,7 -2,3 -3,5 -5,7 l -4,4 c -1,1 -3,2 -5,4 -3,2 -5,3 -8,5 -3,2 -5,4 -7,5 -3,1 -4,2 -5,3 v 2 h -10 -11 l -6,-4 -4,-4 z"
   id="path854"
   inkscape:connector-curvature="0"
   style="fill:#009f3c" />
   <path
   class="fil0"
   d="m 3090,1300 c -2,4 -4,7 -5,9 0,1 -1,3 -2,5 -1,2 -2,3 -2,4 0,0 0,1 -1,3 -1,1 -1,2 -2,4 -1,1 -2,2 -2,4 -1,1 -1,2 -1,2 0,1 0,2 -1,4 -1,2 -1,5 -2,7 -1,2 -2,5 -3,7 -1,2 -1,3 -2,4 0,0 0,1 -1,2 -1,1 -2,2 -3,3 -1,1 -1,1 -2,2 -1,1 -1,2 -1,2 l -6,9 c -1,1 -2,2 -2,2 -1,1 -2,1 -2,2 -1,0 -2,0 -2,0 -1,0 -1,0 -2,0 -1,1 -1,1 -2,1 0,0 -1,1 -2,1 l -3,-1 c -1,0 -2,0 -3,-1 0,0 -1,0 -2,0 l -1,-2 c 0,0 -1,-1 -1,-2 -1,-1 -2,-2 -2,-3 -1,-1 -2,-2 -3,-3 0,-1 0,-2 0,-3 l -4,-6 -2,-3 -6,-8 -2,-6 c 0,0 0,-1 -1,-2 0,-2 -1,-3 -2,-4 -1,-2 -2,-3 -3,-4 0,-2 -1,-3 -1,-3 l -5,-6 -6,-10 -4,-5 -2,2 c 0,1 0,2 -1,4 0,3 0,4 0,5 v 17 18 c 0,0 0,1 0,2 0,1 1,2 1,4 0,1 0,2 1,3 0,1 0,2 0,2 0,1 0,2 1,3 1,2 2,3 3,5 1,2 1,3 2,5 1,1 2,2 2,3 0,0 0,1 0,2 0,2 0,4 0,6 0,2 0,4 1,6 0,3 0,5 0,7 0,2 0,4 0,5 0,1 0,2 0,3 l 2,5 v 2 2 l -2,4 c 0,1 0,1 0,2 -1,1 -2,2 -2,3 -1,1 -2,2 -3,3 -1,0 -1,1 -2,2 -1,1 -1,2 -2,2 -1,1 -2,2 -2,3 -1,0 -2,1 -2,1 l -4,1 h -4 -4 l -3,-3 c -1,-1 -1,-2 -2,-3 0,0 0,-1 0,-2 0,0 -1,-1 -1,-1 0,-1 0,-1 0,-2 0,-1 0,-2 -1,-4 0,-1 0,-2 -1,-4 v -19 c 0,0 0,-2 0,-4 0,-1 0,-4 0,-6 -1,-2 -1,-4 -1,-7 0,-2 0,-3 0,-4 0,-1 0,-2 -1,-3 0,-2 0,-3 0,-5 0,-2 -1,-3 -1,-5 0,-1 0,-2 0,-3 v -65 l -2,-4 -8,-8 -2,-4 v -9 -10 c 0,-1 1,-1 1,-2 0,-1 1,-1 1,-2 0,-1 0,-1 0,-2 l 2,-2 6,-4 c 0,0 1,-1 2,-1 1,0 1,-1 2,-1 1,-1 2,-1 3,-1 h 8 10 l 4,1 c 0,1 1,2 2,2 2,1 3,2 3,4 1,1 2,2 3,3 1,1 2,2 2,2 l 5,8 4,6 2,4 c 0,1 1,2 1,3 1,0 1,1 2,3 0,1 1,2 1,3 1,1 1,2 1,3 1,1 2,3 3,5 1,1 2,2 2,3 1,2 2,3 2,3 1,1 3,3 4,5 2,3 3,6 5,8 1,2 3,4 4,6 1,2 2,3 3,4 l 4,3 h 2 l 3,-3 c 0,0 1,-1 2,-2 1,-1 2,-2 2,-3 1,-3 2,-4 3,-6 0,0 1,-1 1,-2 1,-1 2,-3 2,-4 1,-1 2,-2 3,-3 0,-1 0,-2 0,-2 l 4,-6 2,-4 c 1,-3 2,-6 3,-8 1,-2 2,-5 3,-8 0,-1 0,-2 1,-3 0,-1 1,-2 1,-4 0,-1 1,-2 1,-3 1,-2 1,-2 1,-3 l 2,-10 2,-4 c 0,0 0,-1 1,-1 0,-1 1,-2 2,-2 0,-1 1,-2 2,-2 0,-1 0,-2 0,-2 0,-1 1,-1 1,-2 1,-1 2,-1 2,-2 1,0 2,-1 3,-2 l 4,-2 h 4 6 c 0,0 1,0 2,0 1,1 2,1 2,1 2,1 3,1 4,1 l 3,3 4,5 3,4 v 5 4 c 0,1 -1,1 -1,2 -1,1 -1,2 -2,3 0,1 0,2 -1,3 0,1 -1,1 -1,2 0,2 0,5 -1,7 0,2 0,4 0,7 0,2 -1,4 -1,5 v 2 c 0,1 1,3 1,6 0,3 0,5 0,8 1,3 1,5 1,7 0,2 0,4 0,4 0,1 1,1 1,3 0,1 0,2 0,3 1,1 1,2 1,4 0,0 1,2 1,4 0,2 1,5 1,7 1,3 1,6 2,8 0,2 0,4 0,4 l 2,8 c 0,0 0,1 0,2 1,2 1,3 1,5 0,1 1,2 1,3 0,2 0,3 0,3 0,1 0,1 1,2 0,2 0,3 0,4 1,1 1,2 1,4 1,1 1,4 2,7 2,3 3,6 4,9 1,4 2,7 3,10 2,3 2,5 3,7 0,0 1,0 1,1 1,0 2,1 2,2 1,1 1,1 2,2 0,1 0,2 0,2 v 2 4 l -1,2 c 0,1 0,2 0,2 0,1 -1,1 -1,2 -1,1 -1,2 -1,3 -1,1 -1,2 -2,3 -1,0 -2,1 -2,2 -1,0 -2,1 -2,1 -1,0 -2,0 -2,0 l -4,2 h -4 -4 c -1,0 -1,0 -2,-1 -1,0 -1,0 -2,-1 0,0 -1,-1 -2,-1 l -2,-2 c 0,-1 0,-1 0,-2 0,-1 -1,-1 -1,-2 -1,-1 -1,-2 -2,-2 0,-1 0,-1 0,-2 0,0 0,-1 -1,-2 0,0 0,-1 0,-2 -1,0 -1,-1 -1,-2 0,0 0,-1 -1,-2 0,-2 0,-3 0,-4 0,-2 -1,-3 -1,-5 0,-1 0,-2 0,-2 0,-1 0,-2 -1,-5 -1,-2 -1,-5 -2,-8 -1,-3 -1,-5 -2,-8 -1,-2 -1,-4 -1,-4 -1,-7 -2,-14 -3,-21 -1,-6 -2,-13 -3,-20 l -2,-10 c 0,0 0,-1 0,-2 0,-1 -1,-2 -1,-3 0,-2 0,-3 0,-4 -1,-1 -1,-2 -1,-2 0,-1 0,-2 0,-3 0,-2 0,-4 -1,-6 0,-2 0,-4 0,-5 0,-2 -1,-3 -1,-4 z m 77,106 v -7 l 2,-6 v -23 c 0,-1 0,-2 1,-4 0,-2 1,-4 1,-6 1,-2 1,-4 1,-6 1,-2 1,-3 1,-4 v -11 c 0,-1 0,-2 0,-3 1,-2 1,-3 1,-5 0,-2 0,-3 1,-5 0,-1 0,-2 0,-3 v -17 -18 c 0,0 0,-1 0,-2 -1,-1 -1,-2 -1,-3 0,-2 0,-3 -1,-4 0,-1 0,-2 0,-2 0,-1 0,-2 -1,-3 0,-1 0,-2 -1,-3 0,-1 -1,-3 -1,-4 -1,-1 -1,-1 -1,-2 0,0 0,-1 0,-2 0,-1 -1,-1 -1,-2 l -1,-4 v -5 -4 l 2,-2 6,-4 4,-2 c 0,0 1,0 2,0 1,-1 2,-1 3,-1 1,0 1,0 2,-1 1,0 2,0 2,0 h 5 c 3,0 6,1 7,4 2,2 3,6 4,10 0,0 0,1 0,2 1,1 1,2 1,3 0,1 1,3 1,4 0,1 0,2 0,3 0,2 -1,3 -1,5 0,2 0,3 -1,5 0,1 0,2 0,3 0,1 0,2 0,4 0,2 -1,4 -1,6 0,2 0,4 -1,6 0,2 0,3 0,3 v 6 c 0,1 0,3 0,6 0,3 -1,6 -1,10 0,4 0,8 -1,13 0,4 0,9 -1,13 0,4 0,7 0,10 0,3 0,5 0,6 v 4 4 c 0,1 0,2 0,3 1,1 1,2 1,3 0,0 0,1 0,1 l 2,6 v 6 l 2,4 c 0,1 0,1 1,2 0,0 0,0 1,1 1,0 1,1 2,1 h 6 6 c 0,0 1,0 2,-1 1,0 2,-1 3,-1 1,-1 1,-1 2,-1 1,-1 2,-1 2,-1 1,0 3,0 4,-1 2,-1 3,-1 4,-1 1,0 2,0 3,0 1,0 3,-1 4,-1 2,0 3,0 4,-1 2,0 3,0 3,0 h 13 12 c 1,0 1,0 2,1 1,0 1,1 2,1 1,1 1,2 2,2 0,1 0,2 0,2 1,1 1,2 1,2 0,1 1,1 1,2 0,1 0,1 0,2 v 4 1 c 0,1 -1,2 -1,2 -1,1 -1,1 -1,2 -1,0 -1,0 -2,0 -2,1 -4,2 -7,3 -2,1 -5,1 -7,1 l -7,2 c -1,0 -2,1 -4,1 -1,0 -3,1 -5,1 -2,1 -4,1 -6,2 -1,0 -2,0 -3,0 0,0 -1,0 -2,1 -1,0 -2,1 -3,1 -1,1 -2,1 -2,1 -1,1 -2,1 -3,1 l -9,2 c -1,0 -2,1 -2,1 -2,0 -3,1 -4,1 l -4,2 -10,4 -3,3 -5,2 c 0,0 -1,1 -2,1 -1,0 -2,0 -3,0 -2,1 -3,1 -4,1 -1,0 -2,0 -2,0 l -4,-2 -2,-2 -2,-3 -6,-8 c 0,-1 -1,-2 -1,-3 0,-1 0,-2 -1,-3 0,-1 0,-1 0,-2 z"
   id="path856"
   inkscape:connector-curvature="0"
   style="fill:#009f3c" />
  </g>
  <path
   class="fil2"
   d="m 2271,1514 h -12 l 10,-49 h -17 l 2,-10 h 47 l -2,10 h -17 z m 37,0 h -12 l 13,-59 h 11 l -4,21 c 3,-2 5,-4 7,-5 3,0 5,-1 8,-1 3,0 6,1 8,3 2,2 3,5 3,8 0,2 0,4 -1,8 l -5,25 h -12 l 5,-25 c 1,-3 1,-5 1,-6 0,-1 0,-2 -1,-3 -1,-1 -2,-2 -4,-2 -2,0 -4,1 -5,2 -3,2 -5,4 -6,7 0,1 -1,5 -2,10 z m 81,-18 h -29 c 0,1 0,1 0,1 0,3 1,6 2,7 2,2 4,3 6,3 4,0 7,-2 9,-6 l 11,2 c -2,4 -5,7 -8,9 -4,2 -8,3 -12,3 -6,0 -10,-2 -14,-5 -4,-4 -5,-9 -5,-15 0,-6 1,-11 4,-16 5,-6 11,-9 20,-9 5,0 9,2 12,5 3,3 5,8 5,14 0,3 0,5 -1,7 z m -10,-7 c 0,0 0,-1 0,-1 0,-3 0,-6 -2,-7 -1,-2 -3,-3 -6,-3 -2,0 -4,1 -6,3 -2,2 -3,5 -4,8 z m 68,-18 -2,9 h -8 l -8,34 h -11 l 7,-34 h -7 l 2,-9 h 7 l 1,-4 c 0,-4 1,-6 2,-8 1,-1 2,-3 4,-4 2,-1 4,-1 7,-1 4,0 7,0 11,2 l -2,8 c -3,-1 -5,-2 -7,-2 -1,0 -2,1 -3,2 0,0 -1,2 -1,4 l -1,3 z m 6,0 h 11 l -2,8 c 4,-6 8,-9 13,-9 2,0 4,0 5,1 l -4,10 c -1,0 -2,-1 -3,-1 -2,0 -4,1 -7,3 -2,1 -3,3 -4,6 -2,2 -3,6 -4,12 l -3,13 h -11 z m 66,25 h -30 c 0,1 0,1 0,1 0,3 1,6 3,7 2,2 4,3 6,3 4,0 7,-2 9,-6 l 10,2 c -2,4 -4,7 -8,9 -3,2 -7,3 -11,3 -6,0 -11,-2 -14,-5 -4,-4 -6,-9 -6,-15 0,-6 2,-11 5,-16 5,-6 11,-9 19,-9 6,0 10,2 13,5 3,3 5,8 5,14 0,3 -1,5 -1,7 z m -10,-7 c 0,0 0,-1 0,-1 0,-3 -1,-6 -2,-7 -2,-2 -4,-3 -6,-3 -2,0 -5,1 -6,3 -2,2 -4,5 -4,8 z m 56,7 h -29 c 0,1 0,1 0,1 0,3 1,6 2,7 2,2 4,3 6,3 4,0 7,-2 9,-6 l 11,2 c -2,4 -5,7 -8,9 -4,2 -8,3 -12,3 -6,0 -10,-2 -14,-5 -4,-4 -5,-9 -5,-15 0,-6 1,-11 4,-16 5,-6 11,-9 20,-9 5,0 9,2 12,5 3,3 5,8 5,14 0,3 0,5 -1,7 z m -10,-7 c 0,0 0,-1 0,-1 0,-3 0,-6 -2,-7 -1,-2 -3,-3 -6,-3 -2,0 -4,1 -6,3 -2,2 -3,5 -4,8 z m 54,-6 -11,-1 c 1,-3 3,-7 6,-9 4,-2 8,-3 13,-3 6,0 10,1 13,3 2,3 4,5 4,9 0,1 0,2 -1,4 0,1 -1,5 -2,11 -1,5 -2,9 -2,11 0,2 0,4 1,6 h -11 c -1,-1 -1,-3 -1,-5 -2,2 -4,4 -6,5 -2,1 -4,1 -7,1 -3,0 -6,-1 -9,-3 -2,-3 -3,-6 -3,-9 0,-4 1,-8 4,-10 2,-3 7,-4 14,-5 5,0 9,-1 11,-1 0,-2 0,-3 0,-4 0,-1 0,-2 -1,-3 -1,-1 -3,-2 -5,-2 -2,0 -3,1 -5,2 -1,1 -2,2 -2,3 z m 11,11 c -1,0 -2,1 -3,1 -6,0 -9,1 -11,3 -1,1 -2,2 -2,4 0,1 0,2 1,3 1,1 3,2 4,2 2,0 4,-1 5,-2 2,-1 3,-2 4,-3 1,-1 1,-3 2,-6 z m 28,-23 h 11 l -1,6 c 3,-3 5,-4 8,-5 2,-1 5,-2 7,-2 4,0 7,1 9,3 2,2 3,5 3,8 0,2 -1,5 -2,9 l -5,24 h -11 l 5,-24 c 1,-4 1,-6 1,-7 0,-1 0,-2 -1,-3 -1,-1 -2,-2 -4,-2 -2,0 -4,1 -6,3 -2,1 -3,3 -5,5 0,2 -1,5 -3,11 l -3,17 h -12 z m 82,43 h -11 l 1,-4 c -2,2 -5,3 -7,4 -2,1 -4,1 -7,1 -4,0 -8,-1 -10,-4 -3,-3 -5,-8 -5,-14 0,-7 2,-13 6,-19 4,-5 9,-8 16,-8 6,0 10,2 13,7 l 4,-22 h 12 z m -27,-17 c 0,3 1,5 2,7 2,2 4,3 6,3 2,0 4,-1 6,-3 2,-1 3,-3 4,-6 1,-3 2,-6 2,-9 0,-3 -1,-5 -3,-7 -1,-2 -3,-3 -6,-3 -3,0 -6,2 -8,5 -2,4 -3,8 -3,13 z m 63,-1 c 0,-8 2,-14 6,-19 5,-5 11,-7 18,-7 7,0 11,2 15,5 4,4 5,9 5,15 0,7 -2,13 -6,18 -5,5 -11,7 -18,7 -4,0 -8,0 -11,-2 -3,-2 -6,-4 -7,-7 -2,-3 -2,-6 -2,-10 z m 33,-8 c 0,-3 -1,-5 -3,-7 -1,-1 -3,-2 -6,-2 -2,0 -5,1 -7,2 -1,2 -3,4 -4,7 -1,3 -2,6 -2,8 0,3 1,6 3,8 1,1 4,2 6,2 3,0 6,-1 8,-4 3,-4 5,-8 5,-14 z m 24,-17 h 11 v 5 c 2,-2 4,-4 6,-5 2,-1 4,-1 7,-1 4,0 8,2 11,5 3,3 4,8 4,14 0,7 -2,14 -7,19 -4,5 -9,7 -15,7 -5,0 -10,-2 -13,-7 l -4,23 h -12 z m 7,25 c 0,3 1,6 3,8 2,2 4,2 6,2 2,0 4,0 5,-2 2,-1 4,-3 5,-7 1,-3 2,-6 2,-9 0,-3 -1,-5 -3,-7 -1,-2 -3,-3 -6,-3 -2,0 -4,1 -6,3 -2,1 -3,4 -4,7 -1,3 -2,6 -2,8 z m 78,0 h -30 c 0,1 0,1 0,1 0,3 1,6 3,7 2,2 4,3 6,3 4,0 7,-2 9,-6 l 10,2 c -2,4 -4,7 -8,9 -3,2 -7,3 -11,3 -6,0 -11,-2 -14,-5 -4,-4 -6,-9 -6,-15 0,-6 2,-11 5,-16 5,-6 11,-9 19,-9 6,0 10,2 13,5 3,3 5,8 5,14 0,3 -1,5 -1,7 z m -10,-7 c 0,0 0,-1 0,-1 0,-3 -1,-6 -2,-7 -2,-2 -4,-3 -6,-3 -2,0 -5,1 -6,3 -2,2 -4,5 -4,8 z m 23,-18 h 11 l -1,6 c 3,-3 5,-4 8,-5 2,-1 5,-2 7,-2 4,0 7,1 9,3 2,2 3,5 3,8 0,2 0,5 -1,9 l -5,24 h -12 l 5,-24 c 1,-4 1,-6 1,-7 0,-1 0,-2 -1,-3 -1,-1 -2,-2 -4,-2 -2,0 -4,1 -6,3 -2,1 -3,3 -5,5 0,2 -1,5 -2,11 l -4,17 h -12 z m 64,31 11,-2 c 1,3 2,4 4,5 1,1 3,2 6,2 2,0 5,-1 6,-2 1,-1 2,-2 2,-3 0,-1 0,-1 -1,-2 -1,0 -2,-1 -5,-2 -7,-2 -11,-4 -13,-6 -3,-2 -4,-5 -4,-8 0,-3 1,-6 4,-9 3,-3 9,-5 16,-5 5,0 9,1 12,3 3,2 5,5 6,8 l -11,2 c -1,-1 -2,-3 -3,-3 -2,-1 -4,-2 -6,-2 -3,0 -4,1 -5,1 -1,1 -2,2 -2,3 0,1 1,2 2,3 0,0 3,1 6,2 6,2 10,3 12,5 2,2 4,5 4,8 0,4 -2,8 -5,11 -4,3 -9,4 -15,4 -6,0 -11,-1 -14,-3 -4,-2 -6,-6 -7,-10 z m 49,-6 c 0,-8 2,-14 7,-19 4,-5 10,-7 18,-7 6,0 11,2 15,5 3,4 5,9 5,15 0,7 -2,13 -7,18 -4,5 -10,7 -18,7 -4,0 -7,0 -11,-2 -3,-2 -5,-4 -7,-7 -1,-3 -2,-6 -2,-10 z m 33,-8 c 0,-3 0,-5 -2,-7 -2,-1 -4,-2 -6,-2 -3,0 -5,1 -7,2 -2,2 -3,4 -5,7 -1,3 -1,6 -1,8 0,3 1,6 2,8 2,1 4,2 7,2 3,0 6,-1 8,-4 3,-4 4,-8 4,-14 z m 25,-17 h 12 l -5,26 c -1,3 -1,5 -1,5 0,2 0,3 1,4 1,1 2,1 4,1 1,0 2,0 3,-1 1,0 2,-1 3,-1 1,-1 2,-2 3,-3 0,-1 1,-3 2,-4 0,-1 1,-4 2,-6 l 4,-21 h 12 l -9,43 h -11 l 1,-6 c -5,5 -10,7 -16,7 -3,0 -6,-1 -8,-3 -2,-2 -3,-4 -3,-8 0,-1 0,-4 1,-9 z m 51,0 h 11 l -2,8 c 4,-6 8,-9 13,-9 2,0 3,0 5,1 l -4,10 c -1,0 -2,-1 -3,-1 -2,0 -4,1 -7,3 -2,1 -3,3 -4,6 -2,2 -3,6 -4,12 l -3,13 h -11 z m 53,27 11,2 c -2,5 -4,9 -8,11 -4,3 -8,4 -13,4 -5,0 -10,-1 -13,-5 -3,-3 -5,-7 -5,-13 0,-5 1,-9 3,-13 2,-5 5,-8 9,-10 4,-3 8,-4 13,-4 5,0 9,1 12,4 3,3 5,6 5,11 l -11,1 c 0,-3 -1,-4 -2,-6 -1,-1 -3,-1 -5,-1 -2,0 -4,1 -6,2 -2,2 -3,4 -5,8 -1,3 -1,6 -1,9 0,3 1,5 2,6 1,1 3,2 4,2 2,0 4,-1 6,-2 2,-1 3,-3 4,-6 z m 59,-2 h -29 c 0,1 0,1 0,1 0,3 1,6 2,7 2,2 4,3 6,3 4,0 7,-2 9,-6 l 11,2 c -2,4 -5,7 -8,9 -4,2 -8,3 -12,3 -6,0 -10,-2 -14,-5 -4,-4 -5,-9 -5,-15 0,-6 1,-11 4,-16 5,-6 11,-9 20,-9 5,0 9,2 12,5 3,3 5,8 5,14 0,3 0,5 -1,7 z m -10,-7 c 0,0 0,-1 0,-1 0,-3 0,-6 -2,-7 -1,-2 -3,-3 -6,-3 -2,0 -4,1 -6,3 -2,2 -3,5 -4,8 z m 50,-34 h 12 l -6,32 -2,8 c 0,1 0,1 0,2 0,2 1,4 2,6 2,1 5,2 8,2 3,0 5,0 7,-2 2,-1 4,-2 5,-5 1,-2 2,-5 3,-11 l 7,-32 h 12 l -7,32 c -1,7 -3,12 -5,16 -2,4 -5,7 -8,9 -4,2 -9,3 -15,3 -7,0 -12,-1 -16,-5 -3,-3 -5,-8 -5,-13 0,-1 0,-2 0,-4 0,0 1,-3 1,-7 z m 82,59 h -12 l -2,-50 -9,50 h -11 l 12,-59 h 18 l 2,41 20,-41 h 18 l -13,59 h -11 l 12,-49 z m 36,0 12,-59 h 12 l -10,49 h 30 l -2,10 z m 75,-34 1,-9 h 6 l 2,-7 13,-8 -3,15 h 7 l -2,9 h -7 l -4,18 c -1,3 -1,5 -1,5 0,1 0,2 1,3 1,0 2,0 3,0 1,0 2,0 4,0 l -2,9 c -2,0 -4,0 -6,0 -4,0 -7,0 -9,-2 -2,-2 -3,-4 -3,-7 0,-1 1,-4 2,-9 l 3,-17 z m 26,16 c 0,-8 2,-14 7,-19 4,-5 10,-7 18,-7 6,0 11,2 15,5 3,4 5,9 5,15 0,7 -2,13 -7,18 -4,5 -10,7 -18,7 -4,0 -7,0 -11,-2 -3,-2 -5,-4 -7,-7 -1,-3 -2,-6 -2,-10 z m 33,-8 c 0,-3 0,-5 -2,-7 -2,-1 -4,-2 -6,-2 -3,0 -5,1 -7,2 -2,2 -3,4 -5,7 -1,3 -1,6 -1,8 0,3 1,6 2,8 2,1 4,2 7,2 3,0 6,-1 8,-4 3,-4 4,-8 4,-14 z m 18,8 c 0,-8 2,-14 7,-19 4,-5 10,-7 18,-7 6,0 11,2 15,5 3,4 5,9 5,15 0,7 -2,13 -7,18 -4,5 -10,7 -18,7 -4,0 -7,0 -11,-2 -3,-2 -5,-4 -7,-7 -1,-3 -2,-6 -2,-10 z m 33,-8 c 0,-3 0,-5 -2,-7 -2,-1 -4,-2 -6,-2 -3,0 -5,1 -7,2 -2,2 -4,4 -5,7 -1,3 -1,6 -1,8 0,3 1,6 2,8 2,1 4,2 7,2 3,0 6,-1 8,-4 3,-4 4,-8 4,-14 z m 16,26 13,-59 h 11 l -12,59 z"
   id="path860"
   inkscape:connector-curvature="0"
   style="fill:#1f1a17" />
 </g>
</svg>